<?xml version="1.0" standalone="no"?>
<!DOCTYPE svg PUBLIC "-//W3C//DTD SVG 20010904//EN"
 "http://www.w3.org/TR/2001/REC-SVG-20010904/DTD/svg10.dtd">
<svg fill="none" height="7000" viewBox="0 0 800 200" width="9000" xmlns="http://www.w3.org/2000/svg" xmlns:xlink="http://www.w3.org/1999/xlink">
<metadata>
Created by potrace 1.10, written by Peter Selinger 2001-2011
</metadata>
<g 
transform="translate(-150.000000,350.000000) scale(0.190000,-0.090000)"
fill="#8f8f8f" stroke="none">
<path d="M1231 3429 c-17 -18 -31 -59 -31 -92 0 -73 -31 -134 -93 -183 -30
-23 -47 -58 -47 -95 0 -78 -37 -152 -93 -189 -108 -71 -44 -190 102 -190 67 0
89 -14 167 -109 54 -65 184 -12 184 76 0 52 -78 118 -124 106 -46 -12 -176 44
-176 76 0 30 76 151 95 150 33 -1 104 -52 145 -104 50 -64 119 -71 167 -18 72
79 11 188 -101 179 -129 -9 -185 62 -126 159 52 85 86 82 182 -15 87 -88 135
-99 185 -43 77 85 18 183 -110 183 -67 0 -91 12 -142 70 -68 76 -133 90 -184
39z m107 -56 c17 -21 16 -33 -5 -51 -32 -26 -86 21 -64 57 18 29 42 26 69 -6z
m280 -186 c-18 -21 -30 -22 -51 -5 -21 18 -22 30 -5 51 18 21 30 22 51 5 21
-18 22 -30 5 -51z m-420 -94 c17 -21 15 -34 -9 -53 -38 -32 -80 1 -62 49 15
38 41 40 71 4z m280 -186 c-18 -21 -30 -22 -51 -5 -21 18 -22 30 -5 51 18 21
30 22 51 5 21 -18 22 -30 5 -51z m-411 -96 c15 -39 -42 -84 -71 -55 -27 27 -6
84 31 84 16 0 34 -13 40 -29z m273 -160 c0 -16 -10 -35 -22 -42 -28 -18 -67
21 -49 49 20 32 71 27 71 -7z"/>
<path d="M1934 2765 c3 -160 7 -176 45 -181 39 -6 41 3 41 175 0 174 -2 181
-45 181 -44 0 -45 -6 -41 -175z"/>
<path d="M3400 2914 c-100 -51 -126 -210 -48 -296 66 -73 248 -34 248 53 0 17
-18 10 -49 -22 -60 -59 -117 -63 -171 -9 -86 86 -26 260 90 260 28 0 61 -17
75 -40 29 -48 55 -52 55 -9 0 57 -130 98 -200 63z"/>
<path d="M1640 2750 l0 -170 130 0 c117 0 130 4 130 40 0 32 -13 40 -70 40
-49 0 -70 9 -70 30 0 19 19 30 50 30 31 0 50 11 50 30 0 19 -19 30 -50 30 -31
0 -50 11 -50 30 0 20 20 30 58 30 41 0 60 12 68 40 9 37 0 40 -118 40 l-128 0
0 -170z"/>
<path d="M4976 2865 c-28 -117 13 -275 74 -280 55 -4 56 -3 15 15 -56 23 -69
200 -15 200 17 0 30 9 30 20 0 11 -13 20 -30 20 -16 0 -30 14 -30 30 0 42 -33
38 -44 -5z"/>
<path d="M2627 2843 c-15 -22 -16 -47 -5 -65 9 -15 18 -52 18 -81 0 -89 20
-117 82 -117 65 0 78 43 28 93 -16 16 -30 43 -30 58 0 16 14 29 30 29 17 0 30
14 30 30 0 17 -9 30 -20 30 -11 0 -20 14 -20 30 0 43 -86 38 -113 -7z"/>
<path d="M2100 2800 c-50 -50 -52 -143 -3 -187 42 -38 164 -44 199 -9 44 44
25 61 -56 48 -49 -8 -80 -5 -80 8 0 11 36 20 80 20 67 0 80 7 80 40 0 55 -70
120 -130 120 -27 0 -68 -18 -90 -40z"/>
<path d="M2380 2800 c-83 -83 -27 -220 90 -220 64 0 130 41 130 81 0 26 -67
24 -94 -3 -32 -32 -66 -4 -66 53 0 47 5 49 82 36 78 -12 81 -11 61 28 -40 75
-141 87 -203 25z"/>
<path d="M2820 2710 c0 -117 4 -130 40 -130 33 0 40 13 40 72 0 55 9 74 40 82
26 7 40 27 40 58 0 53 -19 61 -56 24 -19 -19 -24 -19 -24 0 0 13 -18 24 -40
24 -36 0 -40 -13 -40 -130z"/>
<path d="M3043 2794 c-51 -55 -55 -108 -12 -170 44 -62 174 -62 218 0 99 143
-87 296 -206 170z m133 -89 c-3 -33 -18 -55 -36 -55 -18 0 -33 22 -36 55 -5
45 1 55 36 55 35 0 41 -10 36 -55z"/>
<path d="M3680 2800 c-82 -82 -29 -220 85 -220 71 0 115 49 115 128 0 119
-119 173 -200 92z m168 -64 c32 -92 -78 -178 -144 -112 -26 26 -33 140 -10
164 36 35 135 2 154 -52z"/>
<path d="M3928 2822 c-17 -18 -7 -242 11 -242 10 0 22 47 25 105 6 102 8 105
71 111 l65 7 0 -112 c0 -61 9 -111 20 -111 26 0 26 172 -1 222 -19 35 -160 50
-191 20z"/>
<path d="M4200 2705 c0 -74 9 -125 21 -125 13 0 16 26 8 68 -18 94 19 156 87
148 50 -5 55 -15 66 -116 l11 -110 4 113 c4 132 -19 160 -124 152 l-73 -5 0
-125z"/>
<path d="M4493 2810 c-87 -87 -46 -216 71 -226 57 -5 78 3 95 35 15 27 16 41
2 41 -12 0 -21 -9 -21 -20 0 -32 -98 -47 -130 -20 -61 50 -35 80 70 80 109 0
122 19 69 96 -36 51 -112 58 -156 14z m143 -55 c6 -29 -8 -35 -75 -35 -84 0
-99 14 -56 57 35 35 123 20 131 -22z"/>
<path d="M4740 2800 c-83 -83 -27 -220 90 -220 49 0 75 12 91 42 31 58 5 75
-33 22 -74 -107 -185 -5 -136 124 17 44 121 41 146 -3 17 -29 21 -30 21 -4 2
81 -112 106 -179 39z"/>
</g>
</svg>
