<?xml version="1.0" standalone="no"?>
<!DOCTYPE svg PUBLIC "-//W3C//DTD SVG 20010904//EN"
 "http://www.w3.org/TR/2001/REC-SVG-20010904/DTD/svg10.dtd">
<svg fill="none" height="9000" viewBox="0 0 1100 500" width="9000" xmlns="http://www.w3.org/2000/svg" xmlns:xlink="http://www.w3.org/1999/xlink">
<metadata>
Created by potrace 1.10, written by Peter Selinger 2001-2011
</metadata>
<g 
transform="translate(-250.000000,450.000000) scale(0.190000,-0.10000)"
fill="#8f8f8f" stroke="none">
<path d="M2016 4218 c-9 -13 -16 -43 -16 -69 0 -69 -6 -79 -49 -79 -45 0 -81
-10 -81 -21 0 -16 84 -10 120 9 34 17 35 19 40 87 l5 70 115 0 115 0 9 -66 c9
-66 10 -67 51 -88 42 -21 115 -29 115 -12 0 13 -26 21 -69 21 -52 0 -71 23
-71 87 0 86 5 83 -141 83 -121 0 -129 -1 -143 -22z"/>
<path d="M2603 4153 c-4 -10 -13 -24 -20 -31 -7 -7 -13 -20 -13 -28 0 -29 -33
-54 -72 -54 -21 0 -38 -4 -38 -9 0 -11 35 -21 73 -21 22 0 29 5 33 29 4 17 12
32 20 35 8 3 14 17 14 31 0 22 4 25 39 25 22 0 44 -6 51 -15 7 -8 23 -15 35
-15 13 0 25 -7 29 -15 3 -8 15 -15 26 -15 23 0 60 -33 60 -54 0 -7 -7 -19 -15
-26 -8 -7 -15 -22 -15 -33 0 -11 -8 -26 -17 -33 -17 -12 -16 -14 6 -38 14 -14
30 -26 37 -26 7 0 14 -3 16 -7 5 -11 66 -53 77 -53 5 0 11 -3 13 -7 2 -5 18
-18 36 -31 33 -23 40 -22 77 9 11 10 31 27 45 38 l25 20 77 -81 c68 -73 75
-83 65 -102 -7 -11 -20 -27 -29 -34 -40 -30 -48 -44 -42 -70 4 -15 13 -34 20
-43 8 -8 14 -23 14 -31 0 -9 7 -21 15 -28 8 -7 15 -20 15 -30 0 -10 6 -23 14
-29 8 -7 17 -23 20 -36 6 -22 12 -25 50 -25 27 0 48 6 56 16 22 25 62 14 72
-21 4 -16 6 -36 3 -42 -3 -10 -130 -13 -585 -13 l-580 0 0 -520 0 -520 428 -2
427 -3 3 -32 c2 -22 15 -41 47 -69 43 -36 44 -38 27 -59 -56 -71 -127 -145
-140 -145 -8 0 -34 16 -58 35 -45 37 -79 40 -105 9 -6 -8 -18 -14 -25 -14 -8
0 -14 -5 -14 -10 0 -6 -10 -15 -22 -20 -30 -13 -55 -30 -85 -57 -22 -20 -23
-25 -13 -62 6 -23 15 -41 20 -41 6 0 10 -18 10 -40 0 -33 -3 -40 -19 -40 -11
0 -26 -7 -35 -15 -8 -8 -23 -15 -34 -15 -11 0 -25 -7 -32 -15 -7 -8 -20 -15
-30 -15 -10 0 -23 -7 -30 -16 -12 -13 -16 -12 -36 13 -13 15 -23 35 -24 44 0
9 -7 22 -15 29 -8 7 -15 18 -15 26 0 17 -15 25 -34 18 -23 -9 -20 -19 9 -34
14 -7 25 -19 25 -27 0 -7 6 -22 12 -33 10 -16 10 -22 -2 -32 -12 -11 -14 -34
-10 -128 l5 -115 70 -8 c107 -12 219 -5 223 13 2 13 -18 15 -130 15 l-133 0 0
95 c0 93 1 95 23 93 12 -2 22 2 22 7 0 6 11 10 24 10 13 0 29 7 36 15 7 8 21
15 31 15 9 0 24 7 33 15 8 8 23 15 33 15 10 1 30 11 46 23 25 21 26 26 16 55
-6 18 -15 32 -19 32 -11 0 -22 64 -14 84 3 9 13 16 20 16 8 0 17 7 20 15 4 8
12 15 19 15 8 0 20 6 27 12 19 18 48 36 77 48 26 12 44 3 94 -44 15 -14 32
-26 37 -26 5 0 27 19 48 43 22 23 62 67 90 97 47 50 63 80 45 80 -5 0 -25 16
-46 35 -30 27 -38 41 -35 63 l3 27 193 3 192 2 -2 518 c-3 508 -3 517 -23 520
-42 6 -65 25 -65 51 0 33 -26 71 -47 71 -9 0 -24 -6 -32 -14 -9 -7 -32 -16
-52 -19 -30 -4 -41 -1 -56 17 -11 13 -23 35 -27 49 -3 15 -11 27 -16 27 -6 0
-10 8 -10 17 0 9 -6 24 -14 32 -8 9 -18 28 -21 43 -6 24 -1 34 39 71 25 24 46
49 46 55 0 6 -26 38 -57 70 -32 33 -72 76 -90 96 -17 20 -34 36 -38 36 -4 0
-30 -20 -57 -45 -48 -43 -78 -57 -78 -35 0 6 -10 15 -22 20 -34 15 -62 33 -71
48 -4 6 -12 12 -18 12 -16 0 -69 43 -69 56 0 6 7 17 15 24 8 7 15 23 15 35 0
13 7 25 15 29 8 3 15 17 15 31 0 20 -6 27 -29 31 -17 4 -32 12 -35 20 -3 8
-17 14 -31 14 -14 0 -25 4 -25 10 0 5 -12 13 -27 16 -16 4 -35 12 -43 19 -8 7
-27 15 -43 19 -21 5 -29 2 -34 -11z m512 -1043 c14 0 32 -20 58 -65 20 -35 37
-68 37 -73 0 -6 3 -12 8 -14 4 -1 15 -19 26 -38 54 -102 81 -150 112 -201 19
-31 34 -59 34 -63 0 -3 18 -35 40 -71 22 -36 40 -68 40 -72 0 -3 14 -28 30
-55 54 -88 54 -88 -128 -88 -180 0 -177 -1 -222 92 l-23 47 -194 3 c-107 2
-200 1 -208 -2 -8 -3 -26 -27 -40 -55 -46 -87 -42 -85 -185 -85 -104 0 -129 3
-134 15 -3 8 23 63 59 125 36 60 94 159 129 219 35 60 67 119 71 130 3 12 11
21 16 21 5 0 9 5 9 11 0 6 20 45 45 86 25 40 45 77 45 82 0 12 33 47 49 53 8
2 80 3 160 1 80 -1 155 -3 166 -3z"/>
<path d="M2896 2848 c-10 -23 -34 -68 -52 -99 -19 -31 -34 -62 -34 -68 0 -7
37 -11 114 -11 l114 0 -47 89 c-25 49 -53 99 -61 111 -15 22 -16 21 -34 -22z"/>
<path d="M1646 4145 c-8 -8 -23 -15 -34 -15 -11 0 -25 -6 -32 -14 -6 -8 -23
-16 -37 -18 -15 -2 -28 -9 -31 -15 -5 -18 33 -16 52 2 8 8 24 15 35 15 11 0
26 7 35 15 8 8 24 15 36 15 23 0 59 -36 60 -60 2 -41 52 -70 94 -54 28 11 17
24 -20 24 -30 0 -37 4 -45 30 -6 17 -15 30 -20 30 -5 0 -9 8 -9 18 0 40 -54
57 -84 27z"/>
<path d="M1453 4059 c-12 -12 8 -81 26 -87 18 -6 14 -82 -4 -82 -8 0 -15 -5
-15 -10 0 -6 -8 -14 -17 -17 -10 -4 -41 -24 -69 -45 -28 -21 -57 -38 -64 -38
-15 0 -81 48 -93 67 -4 7 -16 13 -25 13 -18 0 -31 -14 -107 -106 -22 -26 -48
-56 -57 -66 -28 -28 -22 -48 27 -95 42 -40 58 -73 35 -73 -5 0 -12 -11 -16
-24 -3 -14 -12 -27 -20 -30 -8 -3 -14 -15 -14 -26 0 -11 -7 -23 -15 -26 -8 -4
-15 -14 -15 -23 0 -23 -40 -45 -77 -42 -34 3 -45 -12 -17 -23 9 -3 31 -6 50
-6 26 0 37 5 44 23 6 12 19 36 30 52 11 17 24 39 30 50 6 11 19 34 30 50 35
53 35 55 -14 104 -25 26 -46 52 -46 58 0 7 18 31 40 55 22 24 50 58 63 76 30
44 52 49 85 18 57 -53 74 -65 88 -59 8 3 14 9 14 14 0 5 5 9 11 9 6 0 28 13
48 28 20 16 44 32 54 35 9 4 17 11 17 17 0 5 6 10 13 10 6 0 22 11 34 24 20
21 21 28 12 55 -6 17 -14 31 -19 31 -12 0 -21 63 -10 74 5 5 10 14 10 18 0 12
-34 10 -47 -3z"/>
<path d="M837 3374 c-4 -4 -7 -16 -7 -26 0 -10 -4 -18 -10 -18 -5 0 -13 -12
-16 -27 -4 -16 -13 -35 -20 -44 -12 -13 -14 -105 -12 -525 l3 -509 144 -3 c86
-1 150 -7 158 -14 23 -19 14 -43 -32 -85 -25 -22 -45 -45 -45 -51 0 -6 10 -22
23 -36 12 -13 51 -56 85 -95 35 -39 67 -71 72 -71 4 0 28 16 53 35 56 43 78
44 127 5 21 -17 43 -30 49 -30 7 0 14 -7 17 -15 4 -8 12 -15 19 -15 16 0 45
-33 45 -52 0 -9 -7 -21 -15 -28 -18 -15 -20 -53 -2 -48 6 3 14 13 16 24 1 10
10 27 18 36 19 21 14 48 -12 62 -11 6 -24 17 -28 24 -4 6 -14 12 -21 12 -8 0
-16 7 -20 15 -3 8 -10 15 -17 15 -6 0 -28 14 -49 30 -47 38 -77 38 -117 1 -52
-47 -65 -45 -119 17 -27 30 -57 62 -66 71 -30 26 -21 56 26 98 36 32 42 42 34
57 -6 10 -6 22 -1 27 5 5 213 10 463 11 l455 3 3 509 c2 401 0 511 -10 518 -7
4 -274 8 -593 8 -319 0 -586 0 -592 0 -8 0 -13 14 -13 35 0 28 5 38 25 47 14
6 24 16 22 22 -4 13 -30 19 -40 10z m789 -282 c29 -6 60 -15 70 -20 11 -5 41
-20 68 -33 58 -28 143 -109 152 -145 11 -43 -7 -51 -140 -59 -137 -8 -162 -4
-171 26 -19 57 -89 89 -199 89 -153 0 -236 -74 -236 -211 0 -131 71 -198 228
-216 82 -9 212 42 212 84 0 10 -23 13 -97 13 -144 0 -143 0 -143 74 0 35 5 67
12 74 9 9 83 12 270 12 l258 0 5 -22 c3 -13 4 -102 3 -198 l-3 -175 -54 -3
c-74 -4 -99 4 -107 32 -7 29 -36 39 -62 20 -33 -23 -109 -44 -210 -60 -87 -13
-110 -13 -222 2 -69 8 -129 19 -135 23 -5 5 -23 11 -39 15 -37 9 -123 64 -162
105 -43 44 -72 107 -80 171 -7 59 10 173 26 178 6 2 10 9 10 16 0 22 68 93
122 128 50 33 133 65 223 87 50 12 333 7 401 -7z"/>
<path d="M3867 3253 c-4 -3 -7 -237 -7 -520 l0 -513 640 0 640 0 0 520 0 520
-633 0 c-349 0 -637 -3 -640 -7z m441 -142 c12 0 25 -9 29 -18 3 -10 14 -37
24 -60 11 -23 19 -47 19 -53 0 -5 4 -18 10 -28 5 -9 19 -39 30 -67 12 -27 28
-64 36 -82 8 -17 14 -38 14 -45 0 -8 9 -23 19 -32 18 -17 19 -16 26 13 3 17
17 53 31 81 13 27 24 53 24 56 0 3 6 20 14 37 8 18 24 55 36 82 42 100 52 113
84 118 50 8 330 3 344 -6 17 -11 18 -707 0 -725 -8 -8 -49 -12 -118 -12 -151
0 -143 -17 -139 266 2 171 0 229 -9 232 -7 2 -12 -2 -12 -8 0 -7 -6 -26 -14
-43 -7 -18 -44 -104 -81 -192 -37 -88 -71 -164 -76 -169 -5 -6 -9 -18 -9 -28
0 -10 -9 -27 -20 -38 -27 -27 -153 -29 -182 -3 -10 9 -18 20 -18 25 0 8 -13
41 -50 123 -37 83 -50 115 -50 124 0 5 -6 22 -14 38 -8 15 -22 46 -31 68 -9
22 -20 49 -25 60 -5 11 -12 30 -15 43 -16 55 -20 -3 -16 -223 2 -161 0 -239
-8 -254 -11 -19 -20 -21 -106 -21 -83 0 -96 2 -105 19 -12 23 -14 689 -2 707
4 7 18 14 32 15 23 4 277 4 328 0z"/>
<path d="M5400 2740 l0 -520 641 2 641 3 -1 508 c0 279 -3 512 -6 517 -4 6
-246 10 -641 10 l-634 0 0 -520z m829 364 c8 -8 35 -54 94 -164 10 -19 32 -57
48 -85 16 -27 35 -61 42 -75 6 -14 14 -27 18 -30 3 -3 12 -18 21 -35 26 -52
90 -170 98 -180 22 -29 70 -128 70 -145 0 -20 -6 -20 -162 -18 l-163 3 -40 67
-40 67 -190 3 c-104 2 -199 -1 -210 -5 -11 -4 -29 -29 -40 -54 -35 -80 -42
-83 -182 -83 -105 0 -125 2 -130 16 -3 9 -1 25 6 36 6 10 24 42 40 71 15 29
46 82 68 118 22 36 44 75 47 87 4 12 12 22 17 22 5 0 9 5 9 11 0 6 20 44 44
84 24 39 47 82 50 93 4 12 12 22 17 22 5 0 9 5 9 11 0 18 82 149 102 163 15
10 59 13 184 12 90 -2 168 -7 173 -12z"/>
<path d="M5965 2803 c-21 -43 -42 -80 -45 -83 -4 -3 -10 -15 -14 -27 -7 -23
-7 -23 108 -23 64 0 116 2 116 5 0 3 -7 17 -16 31 -9 13 -33 57 -53 96 -20 39
-41 73 -47 75 -6 2 -28 -32 -49 -74z"/>
<path d="M6955 3248 c-3 -7 -4 -240 -3 -518 l3 -505 638 -3 637 -2 -2 517 -3
518 -633 3 c-501 2 -634 0 -637 -10z m773 -130 c7 -7 12 -41 12 -84 0 -56 -3
-73 -16 -78 -20 -8 -258 -8 -278 0 -13 5 -16 22 -16 80 0 68 2 75 23 84 34 14
261 12 275 -2z m6 -204 c3 -9 6 -127 6 -264 0 -137 -3 -255 -6 -264 -5 -14
-27 -16 -143 -16 -93 0 -141 4 -149 12 -9 9 -12 82 -12 268 0 186 3 259 12
268 8 8 56 12 149 12 116 0 138 -2 143 -16z"/>
<path d="M1437 1714 c-16 -17 -4 -40 29 -56 19 -10 41 -18 48 -18 8 0 19 -7
26 -15 7 -8 23 -15 35 -15 12 0 28 -7 35 -15 7 -8 21 -15 31 -15 10 0 28 -8
39 -17 17 -15 20 -30 20 -106 l0 -89 -135 4 c-116 3 -135 1 -133 -12 4 -21
269 -28 286 -7 7 8 12 68 13 155 2 140 2 141 31 173 33 35 30 48 -7 31 -14 -7
-25 -20 -25 -31 0 -11 -5 -23 -11 -26 -5 -4 -14 -18 -20 -32 -8 -23 -13 -24
-51 -18 -23 4 -48 14 -56 21 -7 8 -24 14 -37 14 -12 0 -25 7 -29 15 -3 8 -16
15 -30 15 -18 0 -26 6 -28 22 -3 22 -19 33 -31 22z"/>
<path d="M1810 1691 c0 -12 36 -21 83 -21 41 0 50 14 15 24 -35 9 -98 7 -98
-3z"/>
<path d="M2373 1693 c-25 -9 -12 -23 21 -23 40 0 66 8 66 21 0 9 -66 11 -87 2z"/>
<path d="M1960 1660 c0 -11 40 -34 47 -26 3 3 3 12 0 21 -7 16 -47 21 -47 5z"/>
<path d="M2277 1663 c-4 -3 -7 -35 -7 -69 0 -77 1 -76 -145 -72 -98 3 -100 3
-103 28 -7 65 -10 70 -38 58 -20 -9 -24 -16 -18 -32 4 -12 9 -67 11 -123 l4
-102 36 -7 c52 -10 256 5 265 19 4 7 8 49 8 95 0 46 5 93 11 104 8 15 8 27 0
44 -9 20 -7 26 9 36 11 7 20 16 20 20 0 10 -44 11 -53 1z m-12 -233 l0 -55
-130 0 -130 0 -3 44 c-5 73 -8 72 135 69 l128 -3 0 -55z"/>
<path d="M1390 1591 c0 -5 9 -19 20 -32 19 -23 19 -23 20 -3 0 20 -17 44 -32
44 -4 0 -8 -4 -8 -9z"/>
<path d="M2846 1584 c-20 -19 -20 -34 -1 -34 12 0 35 28 35 44 0 11 -19 6 -34
-10z"/>
<path d="M3413 1587 c-21 -9 -23 -18 -25 -111 l-3 -101 -122 -3 -123 -3 0 95
c0 112 -4 126 -37 126 -22 0 -23 -1 -9 -16 12 -12 16 -38 16 -115 0 -80 3
-101 15 -105 8 -4 75 -7 148 -8 l132 -1 3 105 c2 91 5 107 22 122 24 20 14 30
-17 15z"/>
<path d="M3647 1594 c-4 -4 1 -13 11 -20 14 -10 18 -33 22 -121 l5 -108 135
-3 c74 -1 140 1 146 5 7 5 13 53 15 126 4 101 2 117 -11 115 -12 -3 -16 -24
-18 -111 l-3 -108 -122 3 -122 3 -5 99 c-4 86 -8 100 -26 112 -11 8 -23 11
-27 8z"/>
<path d="M4216 1593 c-7 -8 12 -43 24 -43 15 0 12 37 -4 43 -8 3 -17 3 -20 0z"/>
<path d="M4532 1588 c-8 -8 -12 -48 -12 -115 l0 -103 -121 0 c-66 0 -129 5
-140 10 -16 9 -19 7 -19 -9 0 -27 18 -31 155 -31 156 0 155 -1 155 123 0 51 3
102 6 115 7 24 -5 29 -24 10z"/>
<path d="M4788 1483 c3 -94 7 -121 20 -130 11 -9 56 -13 138 -13 127 0 154 4
154 24 0 8 -41 11 -137 11 l-138 0 -3 99 c-2 89 -11 126 -31 126 -3 0 -5 -53
-3 -117z"/>
<path d="M5102 1588 c-14 -14 -16 -48 -4 -48 12 0 33 48 23 54 -4 3 -13 0 -19
-6z"/>
<path d="M5663 1587 c-21 -9 -23 -18 -25 -111 l-3 -101 -122 -3 -123 -3 0 98
c0 93 -10 136 -26 120 -13 -12 -4 -231 9 -239 7 -5 73 -7 147 -6 l135 3 5 108
c4 90 8 111 23 122 23 17 9 26 -20 12z"/>
<path d="M5895 1590 c-4 -6 1 -10 9 -10 20 0 26 -25 29 -140 l2 -95 75 -3 c41
-1 107 1 145 5 l70 8 5 110 c3 61 4 114 2 118 -2 4 -10 3 -18 -4 -10 -8 -14
-37 -14 -110 l0 -99 -120 0 c-139 0 -128 -10 -132 129 -3 76 -5 85 -25 92 -13
5 -25 4 -28 -1z"/>
<path d="M6466 1591 c-3 -4 2 -18 11 -30 17 -25 38 -16 28 12 -8 18 -32 30
-39 18z"/>
<path d="M6782 1587 c-6 -7 -13 -58 -14 -113 l-3 -99 -130 -2 c-71 -1 -134 -2
-139 -2 -5 -1 -2 -8 5 -17 12 -15 31 -16 148 -10 91 4 137 10 143 19 4 6 8 53
8 102 0 50 3 100 6 113 7 24 -7 30 -24 9z"/>
<path d="M7035 1578 c5 -13 9 -67 11 -121 1 -55 6 -102 9 -105 4 -4 68 -8 143
-10 102 -2 141 0 154 10 23 18 30 233 7 233 -11 0 -15 -23 -19 -105 l-5 -105
-130 0 -130 0 -3 99 c-3 94 -11 126 -34 126 -6 0 -7 -9 -3 -22z"/>
<path d="M1136 1574 c-3 -9 -6 -58 -6 -110 l0 -94 -179 0 c-163 0 -218 -7
-175 -24 20 -8 348 -8 368 0 13 5 16 24 16 106 0 55 5 108 10 119 9 16 7 19
-9 19 -10 0 -22 -7 -25 -16z"/>
<path d="M7917 1583 c-10 -9 -9 -53 1 -53 12 0 33 40 27 50 -7 12 -19 13 -28
3z"/>
<path d="M7610 1572 c0 -6 7 -12 15 -15 11 -5 15 -30 17 -109 l3 -103 126 -3
c158 -3 159 -2 159 106 0 93 -18 87 -22 -8 l-3 -65 -120 0 -120 0 -5 100 c-5
94 -6 100 -27 103 -13 2 -23 -1 -23 -6z"/>
<path d="M762 1288 c-18 -18 -14 -56 7 -67 20 -11 7393 -16 7436 -5 29 7 37
27 25 59 l-10 25 -3723 0 c-2882 0 -3726 -3 -3735 -12z"/>
<path d="M1736 1003 c-10 -11 5 -23 28 -23 16 0 26 -7 30 -22 3 -13 6 -119 6
-236 l0 -214 -30 -11 c-52 -20 -33 -27 65 -27 91 0 125 12 71 26 -20 5 -24 14
-30 57 -8 68 -8 254 0 350 6 70 9 76 31 79 13 2 25 8 26 13 2 11 -187 18 -197
8z"/>
<path d="M2005 1000 c-4 -6 1 -12 9 -15 9 -3 23 -7 31 -10 13 -4 15 -39 15
-235 l0 -230 -25 -10 c-45 -17 -27 -30 40 -30 63 0 86 13 48 27 -10 4 -21 11
-25 17 -13 18 -10 374 3 382 6 3 14 2 18 -3 3 -6 22 -30 43 -54 20 -24 94
-116 165 -204 124 -153 155 -180 191 -167 9 3 12 60 12 236 0 127 3 241 6 253
3 12 15 23 25 25 11 2 20 8 19 13 0 6 -30 10 -70 10 -38 0 -71 -4 -72 -10 -2
-5 7 -11 19 -13 12 -2 24 -9 27 -17 9 -24 9 -389 0 -392 -5 -1 -13 1 -19 5
-16 12 -133 157 -266 330 -39 50 -74 92 -78 93 -52 7 -111 7 -116 -1z"/>
<path d="M2653 1003 c-16 -6 -18 -103 -3 -103 6 0 10 8 10 18 0 29 31 49 86
55 84 9 84 8 84 -241 0 -225 -4 -242 -51 -242 -11 0 -17 -4 -14 -10 8 -12 182
-13 189 -1 3 5 -8 14 -24 20 l-30 10 0 224 c0 258 -2 252 81 242 64 -7 69 -10
69 -38 0 -12 4 -29 10 -37 13 -22 22 7 18 61 l-3 44 -205 1 c-113 1 -211 -1
-217 -3z"/>
<path d="M3145 1000 c-3 -6 1 -12 9 -15 9 -3 23 -7 31 -10 24 -7 22 -450 -1
-477 -25 -27 -10 -29 181 -26 l170 3 1 36 c0 19 4 41 8 48 5 7 6 14 3 17 -2 2
-17 -14 -32 -36 l-28 -41 -106 3 -106 3 -3 101 c-3 120 2 129 80 125 62 -3 86
-14 90 -43 2 -12 9 -23 16 -26 10 -3 12 14 10 75 -2 44 -7 78 -13 77 -5 0 -12
-9 -14 -20 -5 -28 -19 -34 -87 -34 -42 0 -65 5 -74 15 -18 22 -10 183 10 195
8 5 44 10 79 10 67 0 131 -27 131 -56 0 -8 4 -14 9 -14 9 0 19 70 13 89 -5 15
-368 15 -377 1z"/>
<path d="M3775 985 c-55 -25 -94 -60 -133 -118 -23 -35 -26 -48 -26 -135 0
-87 3 -101 26 -137 74 -115 187 -155 361 -129 84 12 116 21 118 33 1 3 3 37 4
76 2 39 8 71 14 73 6 2 11 10 11 18 0 12 -16 14 -82 12 -47 -2 -83 -7 -83 -13
0 -5 11 -12 25 -13 39 -6 50 -21 50 -71 0 -77 -13 -86 -122 -86 -80 0 -98 3
-131 23 -98 62 -143 204 -101 325 31 91 104 137 218 137 89 0 118 -10 157 -52
16 -17 32 -29 34 -26 2 2 6 20 7 38 3 31 -1 37 -32 52 -28 14 -59 18 -150 17
-98 -1 -123 -4 -165 -24z"/>
<path d="M4208 998 c-9 -5 -2 -10 20 -14 18 -4 37 -15 43 -25 5 -11 8 -107 7
-235 l-3 -217 -34 -12 c-28 -9 -31 -13 -17 -18 27 -11 174 -8 181 3 3 6 -1 10
-9 10 -9 0 -25 9 -36 20 -19 19 -20 33 -20 223 0 242 2 247 84 247 39 0 62 -6
87 -23 31 -21 34 -28 36 -77 4 -72 -23 -106 -94 -117 -39 -7 -49 -13 -51 -31
-2 -12 0 -22 5 -22 5 0 49 -54 98 -120 l89 -120 48 0 c49 0 64 15 29 28 -19 7
-181 213 -181 229 0 5 21 20 47 34 118 62 124 188 13 233 -31 12 -72 16 -185
14 -80 -1 -150 -5 -157 -10z"/>
<path d="M4985 968 c-19 -46 -32 -77 -64 -148 -11 -25 -31 -72 -46 -105 -68
-155 -99 -214 -116 -218 -11 -3 -19 -10 -19 -16 0 -14 126 -15 135 -1 3 6 2
10 -2 10 -5 0 -17 6 -27 13 -17 12 -16 17 12 80 l31 67 104 0 c117 0 112 2
146 -78 24 -58 18 -82 -21 -82 -10 0 -16 -4 -13 -10 8 -13 172 -13 180 0 3 6
-4 14 -17 19 -21 8 -40 38 -74 119 -7 18 -21 49 -30 70 -9 20 -23 53 -31 72
-8 19 -22 51 -30 70 -23 53 -39 91 -58 138 -10 23 -23 42 -30 42 -7 0 -20 -19
-30 -42z m37 -115 c19 -49 40 -97 54 -126 8 -16 12 -33 8 -38 -3 -5 -43 -9
-90 -9 -95 0 -100 6 -67 72 9 18 22 45 30 60 7 14 13 36 13 47 0 32 38 27 52
-6z"/>
<path d="M5280 995 c-9 -10 -9 -62 -1 -103 3 -11 21 13 21 27 0 29 31 48 87
54 77 9 78 8 81 -227 3 -216 -3 -248 -46 -254 -12 -2 -22 -8 -22 -13 0 -5 43
-9 95 -9 92 0 125 12 70 26 l-25 6 0 228 c0 174 3 230 13 238 8 7 35 9 70 5
52 -5 58 -8 63 -32 11 -49 14 -55 25 -44 6 6 9 32 7 59 l-3 49 -212 2 c-166 1
-214 -2 -223 -12z"/>
<path d="M5774 999 c-3 -5 3 -12 13 -15 49 -15 48 -8 51 -248 l2 -227 -30 -10
c-49 -18 -24 -29 64 -29 92 0 111 7 67 26 -40 17 -43 40 -39 266 3 195 7 214
51 220 12 2 21 8 20 13 -4 13 -191 16 -199 4z"/>
<path d="M6180 989 c-68 -36 -118 -95 -140 -166 -24 -79 -25 -90 -3 -167 40
-148 156 -218 319 -192 78 13 118 31 163 77 59 58 75 103 75 209 1 82 -2 100
-21 131 -62 98 -125 130 -262 128 -72 -1 -105 -6 -131 -20z m230 -29 c48 -24
80 -68 102 -140 22 -70 22 -109 1 -183 -25 -85 -76 -133 -148 -142 -114 -15
-182 20 -232 119 -22 43 -26 64 -26 141 0 114 19 156 93 207 37 25 159 24 210
-2z"/>
<path d="M6655 1000 c-3 -6 1 -12 9 -15 9 -3 23 -7 31 -10 13 -4 15 -39 15
-235 l0 -230 -25 -12 c-41 -19 -29 -28 39 -28 70 0 90 11 52 28 -14 6 -26 22
-30 42 -9 48 -7 343 3 359 8 13 38 -20 171 -189 64 -82 162 -202 180 -222 8
-9 29 -18 45 -20 l30 -3 6 255 c3 140 7 256 7 258 1 1 13 2 27 2 15 0 25 6 25
15 0 11 -15 14 -75 11 -84 -3 -99 -9 -56 -24 37 -13 40 -33 44 -255 2 -172 -1
-179 -51 -129 -26 25 -120 142 -225 277 -99 128 -98 127 -160 131 -31 2 -59 0
-62 -6z"/>
</g>
</svg>
