<?xml version="1.0" standalone="no"?>
<!DOCTYPE svg PUBLIC "-//W3C//DTD SVG 20010904//EN"
 "http://www.w3.org/TR/2001/REC-SVG-20010904/DTD/svg10.dtd">
<svg fill="none" height="9000" viewBox="0 0 1100 500" width="9000" xmlns="http://www.w3.org/2000/svg" xmlns:xlink="http://www.w3.org/1999/xlink">
<metadata>
Created by potrace 1.10, written by Peter Selinger 2001-2011
</metadata>
<g 
transform="translate(-250.000000,600.000000) scale(0.190000,-0.100000)"
fill="#8f8f8f" stroke="none">
<path d="M4874 3801 c-17 -10 -42 -34 -55 -53 -23 -32 -24 -39 -27 -253 -1
-121 -5 -226 -7 -234 -4 -9 -18 -1 -49 27 -88 82 -194 110 -283 77 -115 -43
-182 -141 -209 -306 -13 -80 -13 -103 0 -189 8 -54 19 -106 24 -117 5 -10 20
-40 33 -66 29 -57 69 -97 126 -127 58 -30 213 -32 264 -4 45 25 99 75 99 91 0
23 21 14 57 -27 54 -60 103 -81 189 -82 58 -1 79 3 108 21 20 13 36 26 36 30
0 4 -13 20 -29 35 -21 20 -34 48 -47 99 -15 64 -17 114 -11 507 3 239 2 454
-2 476 -18 94 -135 145 -217 95z m-169 -649 c49 -43 60 -80 60 -202 0 -119 -6
-142 -48 -187 -25 -28 -78 -39 -115 -24 -45 19 -82 85 -83 151 -3 152 9 208
57 261 23 25 101 25 129 1z"/>
<path d="M6146 3801 c-16 -9 -39 -29 -50 -45 -21 -27 -21 -36 -21 -550 l0
-522 28 -42 c15 -23 46 -54 70 -69 71 -46 199 -50 251 -8 l29 23 -38 47 -39
47 0 511 c-1 540 0 523 -45 580 -38 46 -130 61 -185 28z"/>
<path d="M1129 3745 c-49 -14 -89 -41 -89 -62 0 -6 6 -18 14 -25 21 -22 41
-68 60 -139 33 -127 2 -407 -62 -562 -7 -16 -12 -32 -12 -37 0 -8 -28 -65 -43
-84 -4 -6 -21 -30 -38 -54 -16 -24 -49 -57 -73 -74 l-43 -30 15 -32 c40 -83
114 -124 201 -111 44 7 110 48 139 87 7 9 19 23 26 31 26 26 86 196 86 244 0
13 5 33 10 44 6 10 15 69 21 131 10 103 18 127 42 128 4 0 11 -8 14 -17 6 -16
64 -109 80 -128 5 -5 27 -39 48 -74 22 -35 47 -73 55 -86 8 -12 26 -41 39 -64
14 -22 30 -41 36 -41 6 0 21 17 33 38 12 20 31 49 44 64 13 14 30 36 38 48 70
103 184 246 198 248 15 2 17 -12 17 -150 0 -166 16 -353 34 -386 6 -11 11 -31
11 -44 0 -13 7 -36 15 -52 8 -15 15 -35 15 -42 0 -15 20 -54 64 -124 34 -54
97 -113 145 -136 20 -9 45 -22 56 -27 39 -20 156 -20 211 0 67 25 135 77 172
133 33 49 32 60 -1 60 -58 0 -201 77 -264 142 -49 51 -111 141 -119 174 -4 13
-10 27 -15 30 -5 3 -9 13 -9 22 0 9 -7 30 -15 46 -8 15 -15 34 -15 41 0 7 -6
35 -14 61 -16 54 -47 286 -46 348 0 60 31 248 46 283 8 17 14 35 14 40 0 5 14
26 31 47 32 38 32 38 12 58 -19 19 -64 34 -129 45 -49 8 -137 -24 -186 -66
-23 -21 -61 -65 -83 -97 -22 -33 -44 -63 -48 -69 -30 -38 -167 -229 -170 -238
-5 -16 -54 0 -61 20 -3 10 -11 27 -18 37 -129 195 -158 239 -158 246 0 5 -28
38 -63 75 -46 48 -74 69 -103 77 -62 16 -115 17 -165 3z"/>
<path d="M6603 3679 c-59 -17 -69 -117 -16 -159 24 -19 40 -20 289 -20 l263 0
26 25 c18 19 25 36 25 66 0 53 -13 74 -51 88 -39 13 -489 13 -536 0z"/>
<path d="M3340 3392 c-54 -29 -58 -45 -24 -81 16 -17 32 -41 36 -53 3 -13 6
-152 7 -309 1 -312 5 -340 58 -386 22 -19 38 -23 93 -23 66 0 68 1 104 40 l36
40 0 220 c0 188 3 225 18 257 37 79 89 102 138 60 l29 -25 3 -224 c2 -122 7
-227 13 -232 5 -6 9 -18 9 -27 0 -20 70 -86 108 -100 15 -6 59 -11 98 -12 57
0 79 4 107 22 36 22 36 23 21 47 -9 13 -20 24 -24 24 -4 0 -13 12 -21 28 -11
20 -15 92 -19 293 -3 173 -9 271 -16 280 -6 8 -14 25 -18 39 -14 56 -92 110
-157 110 -66 0 -149 -40 -214 -102 -32 -32 -62 -58 -66 -58 -4 0 -10 15 -13
33 -21 111 -202 194 -306 139z"/>
<path d="M8015 3375 l-30 -25 -297 0 -297 0 -35 -31 c-47 -41 -56 -86 -26
-133 28 -47 64 -56 228 -56 72 0 132 -4 132 -8 0 -16 -25 -40 -60 -59 -125
-66 -260 -185 -290 -256 -6 -12 -14 -29 -19 -37 -24 -39 -40 -90 -47 -147 l-7
-62 31 9 c17 4 37 12 44 16 41 26 120 43 198 44 90 0 144 -15 214 -58 21 -13
60 -30 87 -38 43 -13 54 -13 94 1 81 27 125 91 125 179 0 88 -26 116 -75 83
-28 -19 -148 -37 -249 -37 -79 0 -85 1 -78 18 4 11 45 49 92 87 47 37 92 75
101 84 9 9 44 39 76 66 113 95 163 176 163 266 0 55 -22 120 -40 119 -3 -1
-18 -12 -35 -25z"/>
<path d="M2690 3359 c-106 -40 -187 -116 -241 -226 -29 -59 -31 -71 -31 -172
0 -105 9 -145 43 -201 5 -8 13 -25 18 -37 13 -28 96 -111 124 -124 12 -5 29
-13 37 -18 54 -34 96 -43 193 -43 119 0 180 19 263 82 51 38 134 150 134 180
0 9 5 21 12 28 7 7 14 52 16 107 5 113 -17 187 -80 273 -42 56 -149 142 -177
142 -9 0 -23 6 -29 12 -8 8 -51 14 -120 15 -87 2 -117 -1 -162 -18z m203 -170
c51 -39 68 -100 68 -239 0 -106 -3 -131 -21 -168 -26 -53 -73 -85 -114 -77
-37 7 -52 20 -84 70 -25 38 -26 47 -26 175 0 120 2 139 22 175 27 51 43 70 62
78 31 12 68 6 93 -14z"/>
<path d="M5472 3359 c-107 -39 -175 -101 -228 -207 l-39 -77 0 -125 c1 -113 3
-130 27 -180 14 -30 42 -74 62 -97 35 -40 117 -103 135 -103 4 0 23 -7 40 -16
47 -24 235 -22 288 2 81 37 173 137 173 188 0 20 -4 20 -70 -4 -100 -37 -234
-22 -300 32 -24 20 -60 70 -60 83 0 8 31 14 98 19 187 13 272 38 330 97 71 72
61 208 -21 293 -97 100 -299 144 -435 95z m186 -159 c29 -18 32 -24 32 -70 0
-36 -6 -59 -22 -80 -25 -34 -100 -63 -150 -58 -29 3 -33 7 -36 36 -3 32 21
113 42 141 15 20 68 51 86 51 8 0 30 -9 48 -20z"/>
<path d="M6748 3360 c-94 -31 -159 -82 -209 -164 -95 -154 -93 -362 6 -497 45
-60 86 -93 163 -131 60 -29 71 -31 171 -30 94 0 115 3 165 26 31 14 70 39 85
55 32 32 86 139 76 149 -3 4 -9 2 -13 -4 -12 -18 -93 -37 -177 -41 -65 -3 -89
0 -127 17 -45 20 -118 91 -118 115 0 8 33 14 98 19 126 8 206 23 264 49 77 33
118 95 118 179 0 92 -60 179 -154 222 -127 59 -242 71 -348 36z m170 -151 c53
-18 65 -96 26 -157 -32 -49 -156 -81 -184 -47 -27 33 28 172 79 200 32 17 40
18 79 4z"/>
<path d="M417 2746 c-63 -31 -89 -57 -121 -117 -37 -72 -42 -131 -18 -201 24
-67 94 -148 151 -173 20 -9 47 -22 60 -28 32 -16 293 -16 312 -1 8 6 26 14 42
18 15 4 51 21 80 38 62 38 180 149 170 159 -5 4 -28 3 -53 -3 -33 -7 -61 -7
-102 1 -68 15 -106 49 -165 147 -23 38 -58 86 -78 107 -75 77 -185 98 -278 53z"/>
<path d="M8290 2747 c-59 -28 -108 -80 -145 -151 -45 -88 -105 -142 -171 -157
-40 -9 -67 -9 -102 -1 -25 5 -51 8 -55 5 -14 -8 81 -100 153 -147 100 -66 187
-89 323 -84 62 2 121 9 132 14 11 6 37 19 58 30 48 22 135 116 143 152 3 15
10 37 15 50 13 33 11 64 -8 128 -46 147 -211 225 -343 161z"/>
<path d="M3154 2379 c-3 -6 -1 -16 5 -22 7 -7 11 -87 11 -248 0 -224 1 -238
21 -263 23 -29 59 -34 83 -11 22 23 28 101 22 314 l-5 194 -27 24 c-29 25 -97
32 -110 12z"/>
<path d="M7360 2370 c-19 -19 -20 -33 -20 -252 0 -128 4 -238 8 -243 19 -28
68 -55 98 -55 41 0 50 14 30 45 -13 20 -16 61 -16 258 0 214 -2 235 -18 250
-25 23 -58 21 -82 -3z"/>
<path d="M5923 2330 c-18 -7 -23 -17 -23 -43 0 -63 57 -87 99 -43 29 31 23 68
-14 84 -30 14 -32 14 -62 2z"/>
<path d="M3820 2260 c-11 -11 -20 -32 -20 -48 0 -15 -9 -35 -20 -45 -11 -9
-20 -21 -20 -26 0 -5 9 -13 20 -16 18 -6 20 -15 20 -108 0 -112 11 -142 66
-178 38 -25 75 -24 108 2 32 25 33 32 1 49 -41 22 -56 67 -53 151 l3 74 40 5
c31 4 40 9 40 25 0 13 -9 21 -31 25 -46 10 -54 18 -54 55 0 54 -60 75 -100 35z"/>
<path d="M5648 2269 c-12 -6 -18 -22 -18 -44 0 -26 -6 -39 -25 -51 -31 -20
-32 -46 -2 -59 20 -9 22 -18 27 -123 l5 -114 35 -28 c43 -36 85 -38 124 -6
l28 23 -36 29 -36 29 0 97 0 97 38 3 c29 2 37 7 37 23 0 15 -8 21 -35 25 -30
4 -35 9 -42 44 -12 58 -55 82 -100 55z"/>
<path d="M5413 2180 c-28 -32 -48 -38 -56 -17 -3 7 -22 19 -44 26 -34 11 -44
11 -78 -6 -111 -52 -115 -280 -6 -341 49 -28 73 -28 127 0 l44 22 23 -22 c30
-28 58 -28 85 1 21 22 22 33 22 173 0 144 -1 151 -23 172 -32 30 -62 27 -94
-8z m-49 -91 c51 -60 26 -179 -37 -179 -56 0 -79 120 -35 180 28 38 40 38 72
-1z"/>
<path d="M7152 2180 c-32 -33 -47 -37 -55 -17 -3 7 -24 19 -47 26 -57 17 -106
-4 -138 -59 -31 -55 -31 -178 1 -234 40 -70 137 -97 182 -52 22 22 47 20 68
-4 25 -29 62 -25 86 9 19 26 21 44 21 169 0 134 -1 140 -25 166 -31 34 -58 33
-93 -4z m-71 -70 c46 -25 63 -114 32 -169 -20 -35 -55 -41 -85 -14 -28 25 -26
138 4 170 25 27 23 26 49 13z"/>
<path d="M3403 2183 c-22 -15 -23 -21 -23 -169 0 -141 2 -156 20 -174 11 -11
29 -20 40 -20 11 0 29 9 40 20 17 17 20 33 20 110 0 106 15 140 61 140 l29 0
0 -113 c0 -106 2 -115 23 -135 28 -27 58 -28 80 -4 14 15 17 42 17 154 0 124
-2 138 -22 163 -19 24 -26 27 -64 22 -39 -4 -49 -9 -89 -44 -21 -20 -35 -15
-35 11 0 14 -10 30 -25 40 -30 20 -43 20 -72 -1z"/>
<path d="M4150 2181 c-29 -11 -55 -31 -77 -59 -30 -39 -33 -50 -33 -112 0 -62
3 -72 33 -111 57 -75 138 -98 213 -63 31 15 64 48 64 65 0 3 -32 6 -70 5 -63
0 -73 3 -97 26 l-27 27 28 11 c15 5 44 10 65 10 38 0 100 24 113 44 4 6 8 32
8 57 0 57 -26 84 -101 104 -64 17 -62 17 -119 -4z m94 -67 c34 -33 3 -84 -50
-84 -30 0 -34 3 -34 27 0 28 34 73 56 73 7 0 20 -7 28 -16z"/>
<path d="M4453 2183 c-22 -15 -23 -21 -23 -169 0 -141 2 -156 20 -174 24 -24
49 -25 76 -6 16 12 20 30 24 126 5 103 7 114 28 128 22 14 23 13 34 -16 20
-52 64 -50 93 4 17 33 18 36 2 69 -14 30 -22 35 -51 35 -22 0 -45 -9 -65 -25
l-30 -26 -12 23 c-25 48 -58 58 -96 31z"/>
<path d="M4783 2183 c-22 -15 -23 -21 -23 -169 0 -145 1 -154 22 -174 28 -25
52 -26 78 0 17 17 20 33 20 110 0 106 15 140 61 140 l29 0 0 -113 c0 -106 2
-115 23 -135 27 -26 59 -28 81 -6 13 13 16 42 16 158 0 138 -1 143 -25 166
-20 18 -32 22 -64 17 -37 -5 -47 -10 -86 -44 -21 -20 -35 -15 -35 11 0 14 -10
30 -25 40 -30 20 -43 20 -72 -1z"/>
<path d="M6190 2182 c-29 -11 -55 -32 -77 -60 -30 -39 -33 -50 -33 -111 0 -59
4 -73 29 -108 35 -48 98 -83 151 -83 53 0 116 35 151 83 25 35 29 49 29 108 0
61 -3 72 -33 110 -23 31 -46 48 -82 61 -61 22 -77 22 -135 0z m114 -87 c11
-16 16 -46 16 -90 0 -57 -3 -69 -24 -90 -48 -48 -95 -2 -96 93 0 76 19 112 60
112 18 0 33 -8 44 -25z"/>
<path d="M6523 2183 c-22 -15 -23 -21 -23 -169 0 -141 2 -156 20 -174 11 -11
29 -20 40 -20 11 0 29 9 40 20 17 17 20 33 20 118 0 89 2 100 23 119 17 16 27
19 45 12 21 -8 22 -14 22 -117 0 -101 2 -110 23 -130 28 -26 45 -27 75 -6 21
14 22 22 22 153 0 125 -2 141 -21 165 -15 19 -29 26 -57 26 -33 0 -102 -35
-102 -52 0 -5 -7 -8 -15 -8 -9 0 -15 9 -15 24 0 14 -10 30 -25 40 -30 20 -43
20 -72 -1z"/>
<path d="M5917 2152 c-24 -27 -25 -293 -1 -316 22 -23 57 -20 82 7 20 21 22
34 22 153 0 123 -1 132 -23 152 -28 27 -58 28 -80 4z"/>
</g>
</svg>
