<?xml version="1.0" standalone="no"?>
<!DOCTYPE svg PUBLIC "-//W3C//DTD SVG 20010904//EN"
 "http://www.w3.org/TR/2001/REC-SVG-20010904/DTD/svg10.dtd">
<svg version="1.0" xmlns="http://www.w3.org/2000/svg"
 width="900.000000pt" height="1149.000000pt" viewBox="0 0 900.000000 1149.000000"
 preserveAspectRatio="xMidYMid meet">
<metadata>
Created by potrace 1.10, written by Peter Selinger 2001-2011
</metadata>
<g transform="translate(0.000000,1149.000000) scale(0.100000,-0.100000)"
fill="#787878" stroke="none">
<path d="M2169 11013 c-12 -15 -12 -16 4 -10 10 4 23 7 28 7 5 0 9 5 9 10 0
16 -26 12 -41 -7z"/>
<path d="M6771 11025 c9 -8 118 -65 126 -65 13 0 -12 19 -60 44 -42 23 -79 35
-66 21z"/>
<path d="M2097 10983 c-10 -9 -9 -23 1 -23 5 0 17 7 28 15 19 14 19 14 -2 15
-11 0 -24 -3 -27 -7z"/>
<path d="M2002 10918 c-28 -18 -79 -50 -112 -70 -33 -21 -64 -38 -69 -38 -6 0
-14 -6 -18 -13 -4 -7 -51 -44 -103 -81 -286 -207 -642 -563 -745 -745 -20 -35
-75 -161 -100 -231 -21 -59 -45 -166 -45 -204 0 -19 -4 -37 -9 -40 -8 -5 -16
-84 -26 -266 -3 -47 -10 -107 -16 -135 -6 -27 -9 -77 -7 -110 l3 -60 63 93
c34 51 62 95 62 99 0 3 15 22 33 43 17 20 55 72 82 115 28 42 57 87 65 100
202 302 224 339 249 416 14 45 14 141 0 188 -15 53 -45 141 -60 178 -12 30
-11 34 32 89 60 79 304 323 413 415 107 89 253 200 319 241 26 16 47 34 47 39
0 13 0 13 -58 -23z"/>
<path d="M6950 10923 c13 -10 58 -42 100 -72 88 -63 260 -200 310 -247 230
-217 380 -381 380 -414 -1 -26 -29 -114 -45 -140 -5 -8 -12 -32 -16 -55 -4
-22 -11 -57 -15 -78 -8 -46 9 -135 39 -197 19 -39 71 -117 311 -475 33 -49 76
-110 95 -135 18 -25 39 -56 45 -70 19 -42 70 -109 81 -106 6 2 8 10 6 17 -2 8
-7 68 -11 134 -3 66 -9 126 -13 132 -4 7 -10 56 -13 110 -9 163 -53 393 -88
458 -9 17 -16 34 -16 39 0 23 -98 199 -147 266 -94 126 -350 373 -588 568 -38
31 -99 77 -144 107 -25 17 -55 37 -67 45 -12 8 -50 33 -85 54 -35 22 -71 45
-79 51 -8 7 -26 16 -40 19 l-25 7 25 -18z"/>
<path d="M6290 10672 c0 -10 50 -35 57 -28 3 2 -9 12 -26 21 -17 8 -31 12 -31
7z"/>
<path d="M2489 10582 c-52 -26 -112 -56 -134 -65 -22 -9 -51 -26 -65 -37 -19
-15 -51 -23 -120 -31 -52 -5 -99 -14 -104 -19 -6 -6 -20 -10 -32 -10 -55 0
-215 -66 -284 -118 -103 -77 -157 -158 -167 -252 -10 -103 34 -163 150 -200
34 -10 48 -9 110 11 120 37 184 89 291 234 53 72 60 83 128 218 21 43 55 95
74 117 35 39 126 103 207 148 23 12 48 29 56 37 30 29 -14 16 -110 -33z"/>
<path d="M6392 10611 c15 -12 43 -28 62 -36 20 -9 36 -20 36 -25 0 -5 15 -18
34 -27 99 -53 135 -87 177 -168 93 -182 167 -293 245 -370 76 -75 113 -102
150 -110 16 -4 51 -14 77 -22 45 -14 52 -14 106 7 73 27 107 61 120 122 30
134 -69 285 -242 367 -92 43 -170 71 -202 71 -11 0 -25 4 -31 10 -5 5 -52 14
-104 20 -69 8 -104 17 -130 34 -44 29 -139 76 -152 76 -6 0 -32 13 -58 29 -25
16 -62 32 -81 36 l-34 7 27 -21z"/>
<path d="M2690 10052 c-30 -15 -102 -59 -160 -97 -58 -39 -109 -72 -115 -75
-14 -7 -67 -42 -85 -57 -8 -7 -60 -46 -115 -87 -55 -41 -127 -95 -159 -120
-33 -26 -64 -46 -70 -47 -6 0 -56 -2 -111 -4 -284 -10 -412 -52 -532 -174 -32
-32 -200 -239 -293 -361 -19 -25 -58 -73 -87 -108 -60 -71 -65 -85 -25 -72 15
5 61 20 102 34 41 13 104 32 140 41 146 38 349 126 465 202 164 108 310 238
468 418 39 44 80 89 92 100 103 95 138 126 195 172 36 28 81 65 101 82 20 17
40 31 44 31 4 0 25 14 48 32 44 35 85 60 134 83 35 16 52 35 31 35 -7 0 -38
-13 -68 -28z"/>
<path d="M6230 10065 c7 -8 20 -15 30 -15 9 0 25 -9 35 -20 10 -11 27 -22 37
-26 22 -7 198 -138 293 -217 50 -43 95 -83 178 -163 7 -6 32 -35 57 -64 178
-208 412 -405 585 -493 107 -55 203 -97 221 -97 8 0 27 -6 42 -14 15 -7 46
-17 69 -21 24 -4 45 -11 49 -16 3 -5 16 -9 28 -9 25 0 117 -28 180 -55 67 -29
67 -29 -107 188 -56 70 -192 244 -232 296 -45 59 -147 137 -215 165 -25 10
-54 23 -65 29 -25 13 -167 28 -307 32 -120 3 -115 0 -238 97 -183 143 -437
319 -481 333 -10 4 -19 10 -19 14 0 10 -122 71 -140 71 -10 0 -10 -3 0 -15z"/>
<path d="M4495 10030 c-4 -6 -9 -165 -12 -352 -2 -187 -8 -350 -13 -362 -9
-21 -9 -20 -14 36 -3 44 -22 56 -49 30 -31 -29 -55 -28 -63 3 -4 17 -13 25
-28 25 -31 0 -46 -19 -46 -58 0 -26 -4 -33 -17 -30 -27 5 -29 62 -4 97 23 31
26 48 12 70 -12 19 -51 -3 -51 -30 0 -11 -7 -22 -15 -25 -8 -4 -15 -14 -15
-24 0 -10 -7 -23 -15 -30 -8 -7 -15 -21 -15 -31 0 -10 -4 -20 -9 -24 -13 -7
-110 -208 -167 -345 -38 -92 -60 -151 -99 -264 -18 -54 -38 -103 -45 -110 -6
-6 -55 -13 -108 -16 -96 -5 -97 -5 -94 -30 11 -112 243 -356 577 -607 198
-149 266 -195 281 -189 11 4 14 49 14 244 0 131 3 287 7 346 l6 107 24 -23
c19 -18 27 -20 41 -11 9 6 16 18 14 27 -2 12 5 16 33 16 28 0 35 -4 33 -17 -3
-15 10 -17 114 -18 106 0 118 2 118 18 0 13 8 17 36 17 21 0 33 -4 29 -10 -3
-5 -15 -10 -26 -10 -10 0 -19 -4 -19 -8 0 -16 130 -5 149 12 10 9 32 16 51 16
l33 0 -27 -27 c-32 -32 -26 -45 7 -15 34 32 77 29 102 -7 14 -22 23 -27 32
-19 7 6 13 16 13 23 0 6 9 20 20 30 11 10 20 26 20 35 0 10 7 20 15 24 9 3 15
18 15 34 0 28 -3 30 -52 36 -29 3 -70 6 -90 6 -24 0 -45 8 -62 23 -23 21 -29
39 -57 166 -5 24 -13 49 -18 55 -4 6 -18 40 -30 76 -43 126 -117 306 -182 448
-22 45 -39 85 -39 89 0 13 -212 435 -257 511 -54 92 -49 86 -58 72z m765
-1566 c0 -16 -2 -16 -24 -8 -13 5 -14 9 -5 20 13 16 29 9 29 -12z m-420 -5 c0
-4 -29 -8 -65 -8 -36 0 -65 4 -65 9 0 4 29 8 65 8 36 0 65 -4 65 -9z"/>
<path d="M8400 9476 c0 -13 7 -43 16 -67 8 -24 20 -75 26 -114 16 -104 21
-434 8 -565 -26 -263 -33 -373 -34 -525 -1 -88 -5 -166 -9 -172 -21 -32 -67 4
-67 53 0 8 -4 22 -9 32 -5 9 -19 42 -31 72 -27 65 -111 196 -170 263 -81 91
-152 137 -399 256 -35 17 -80 45 -101 61 -40 32 -60 38 -60 18 0 -25 53 -194
86 -275 19 -45 34 -84 34 -87 0 -22 149 -246 211 -316 54 -62 273 -280 281
-280 5 0 8 14 8 30 0 18 -5 30 -13 30 -7 0 -21 16 -30 35 l-16 34 34 -16 c22
-11 35 -24 35 -36 0 -14 4 -17 18 -12 50 21 55 20 47 -14 -5 -22 -3 -31 7 -32
27 -3 43 3 56 19 14 19 16 36 2 27 -5 -3 -19 4 -30 15 -12 12 -15 20 -8 19 7
-2 28 1 46 5 29 7 33 12 29 32 -6 32 20 32 35 -1 7 -17 8 -33 1 -52 -10 -28
-10 -68 3 -195 5 -54 3 -73 -10 -93 -17 -25 -20 -95 -7 -129 7 -17 11 -13 29
25 11 24 50 105 85 179 36 74 76 160 90 190 195 422 213 834 51 1211 -13 31
-24 64 -24 72 0 9 -6 20 -14 24 -8 4 -34 47 -59 94 -51 100 -123 209 -137 209
-6 0 -10 -11 -10 -24z"/>
<path d="M548 9473 c-9 -10 -23 -31 -32 -48 -9 -16 -25 -43 -36 -60 -11 -16
-30 -50 -42 -75 -13 -25 -25 -47 -28 -50 -18 -18 -95 -195 -115 -265 -51 -175
-57 -216 -58 -400 0 -138 3 -199 17 -260 34 -154 86 -312 140 -422 14 -29 26
-55 26 -58 0 -3 34 -74 75 -159 41 -85 75 -161 75 -170 0 -19 26 -21 33 -3 3
8 1 34 -3 59 -16 81 -16 294 -1 312 19 23 25 20 43 -16 l15 -32 19 22 c10 12
30 22 44 22 18 0 29 9 41 33 21 42 59 50 59 12 0 -21 -7 -29 -30 -38 -23 -9
-30 -18 -30 -39 0 -15 4 -29 8 -32 4 -2 33 20 63 49 29 30 60 60 68 67 7 7 34
32 58 56 25 23 48 42 52 43 3 0 35 37 71 81 36 44 70 86 76 92 18 19 109 177
141 246 50 105 60 132 79 200 9 36 23 77 31 92 7 15 13 41 13 58 l0 32 -42
-37 c-24 -20 -104 -66 -178 -102 -174 -85 -254 -139 -338 -227 -56 -59 -162
-211 -162 -232 0 -3 -7 -20 -15 -37 -23 -51 -46 -118 -58 -169 -12 -51 -27
-64 -27 -24 0 14 -4 27 -8 30 -5 3 -12 97 -16 210 -4 112 -11 219 -16 237 -6
19 -10 70 -10 114 0 44 -7 115 -15 159 -10 53 -12 89 -6 111 5 19 5 39 -1 49
-5 10 -7 41 -4 69 3 29 6 57 6 62 0 6 -2 23 -6 39 -6 25 2 88 36 276 26 141
24 164 -12 123z m139 -1542 c18 -2 -9 -51 -28 -51 -18 0 -62 38 -55 48 3 6 41
7 83 3z"/>
<path d="M5516 8360 c-53 -59 -103 -140 -148 -242 -45 -101 -58 -157 -37 -156
37 2 49 -3 49 -22 0 -10 -8 -23 -17 -29 -10 -5 -15 -13 -11 -17 4 -4 14 -1 23
6 14 12 29 11 68 -5 13 -6 17 -2 18 16 1 17 3 19 6 7 2 -10 11 -18 19 -18 8 0
14 -10 14 -21 0 -29 29 -49 63 -42 20 4 27 2 27 -11 0 -9 7 -16 16 -16 12 0
15 -7 11 -26 -3 -19 1 -28 17 -34 21 -9 21 -9 -1 -9 -26 -1 -27 -4 -13 -32 6
-11 21 -19 36 -19 19 0 25 -4 20 -15 -4 -10 1 -15 16 -15 18 0 20 -4 14 -30
-5 -26 -2 -32 20 -40 31 -12 22 -30 -15 -30 -16 0 -34 -6 -40 -14 -6 -8 -24
-16 -39 -19 -31 -6 -110 -33 -132 -46 -9 -5 -30 -12 -49 -16 -18 -4 -44 -13
-59 -21 -15 -8 -36 -14 -48 -14 -11 0 -24 -4 -30 -9 -5 -4 -43 -18 -84 -31
-41 -13 -89 -29 -107 -36 -17 -8 -36 -14 -42 -14 -6 0 -11 -7 -11 -15 0 -17
210 -176 355 -269 50 -32 101 -66 115 -75 14 -10 32 -20 40 -24 8 -4 38 -20
65 -36 145 -86 307 -153 400 -166 59 -8 67 1 54 61 -6 27 -15 73 -22 103 -13
62 -27 44 133 163 52 39 116 89 141 112 25 22 74 67 110 98 133 119 167 154
182 191 9 20 12 37 6 37 -15 0 -61 -32 -84 -57 -11 -13 -29 -23 -40 -23 -17 1
-15 5 13 29 17 15 32 37 32 49 0 12 8 23 20 27 11 4 27 20 36 37 17 33 14 47
-6 23 -12 -14 -15 -14 -32 1 -17 16 -17 18 -1 36 17 19 17 20 0 29 -27 16 -20
44 16 60 17 8 32 21 32 29 0 10 -12 16 -32 18 -46 4 -45 32 1 32 18 0 39 7 46
15 7 8 25 15 39 15 15 0 36 7 47 15 10 8 26 15 34 15 8 0 28 7 43 15 15 8 43
17 63 21 19 3 37 10 40 15 3 5 15 9 27 9 12 1 40 9 62 20 22 11 50 19 62 20
12 0 24 4 27 9 3 5 21 12 40 15 46 9 100 36 89 46 -10 10 -245 57 -378 77 -55
8 -127 18 -160 23 -33 5 -112 14 -175 20 -63 6 -146 15 -185 20 -93 13 -399
28 -505 26 -47 -1 -102 0 -123 2 -36 5 -40 9 -69 71 -17 36 -34 77 -38 91 -10
38 -33 35 -74 -10z"/>
<path d="M3365 8295 c-24 -52 -50 -96 -57 -96 -7 -1 -62 -1 -123 0 -60 1 -175
-3 -255 -9 -80 -6 -174 -13 -210 -15 -140 -10 -275 -25 -540 -59 -104 -13
-401 -66 -409 -73 -10 -8 34 -43 63 -48 44 -10 129 -37 141 -45 6 -4 26 -11
45 -15 19 -4 40 -11 45 -15 6 -4 25 -11 43 -15 18 -4 45 -13 60 -21 15 -8 34
-14 42 -14 8 0 24 -7 34 -15 11 -8 32 -15 46 -15 14 0 35 -7 46 -15 10 -8 31
-15 47 -15 17 0 27 -5 27 -15 0 -10 -10 -15 -30 -15 -32 0 -74 -33 -67 -53 2
-7 16 -12 30 -12 19 -1 27 4 27 17 0 17 1 17 18 1 18 -17 17 -19 -10 -46 -15
-15 -28 -32 -28 -37 0 -6 -11 -10 -25 -10 -33 0 -32 -19 2 -46 17 -14 24 -26
20 -37 -10 -25 -35 -21 -74 13 -32 28 -53 32 -53 9 0 -6 23 -32 50 -60 28 -27
50 -54 50 -59 0 -6 4 -10 10 -10 5 0 26 -17 47 -37 179 -175 403 -366 501
-425 37 -23 41 -55 18 -123 -7 -22 -17 -57 -20 -77 l-7 -38 60 0 c148 0 481
180 881 477 129 95 129 96 83 114 -16 6 -35 15 -43 19 -9 4 -31 11 -50 15 -19
4 -39 11 -45 15 -5 4 -26 11 -45 15 -19 4 -39 11 -45 15 -5 4 -25 11 -43 15
-18 4 -45 13 -60 21 -15 8 -34 14 -43 14 -9 0 -30 7 -45 15 -16 8 -39 15 -50
15 -12 0 -27 7 -34 15 -7 8 -25 15 -41 15 -33 0 -59 34 -34 44 19 7 19 35 0
42 -8 4 -15 12 -15 20 0 19 38 56 50 49 6 -4 10 3 10 14 0 12 4 21 10 21 5 0
12 16 16 35 6 35 28 55 58 55 18 0 22 -35 6 -45 -15 -9 -12 -35 3 -35 13 0 32
31 56 93 6 16 18 27 30 27 17 0 31 26 35 65 3 22 18 55 26 55 11 0 42 -49 36
-58 -7 -12 7 -29 32 -36 20 -7 22 -4 22 26 -1 37 -32 134 -49 151 -6 6 -11 18
-11 27 0 41 -140 271 -185 302 -24 18 -37 3 -80 -87z m155 -433 c0 -10 -22
-32 -32 -32 -4 0 -8 9 -8 20 0 13 7 20 20 20 11 0 20 -4 20 -8z m-1130 -237
c0 -8 -7 -15 -15 -15 -8 0 -15 7 -15 15 0 8 7 15 15 15 8 0 15 -7 15 -15z
m900 -55 c0 -12 -8 -12 -35 0 -18 8 -17 9 8 9 15 1 27 -3 27 -9z"/>
<path d="M5162 8368 c-18 -18 -14 -38 8 -38 15 0 20 7 20 25 0 27 -9 32 -28
13z"/>
<path d="M51 7995 c-56 -336 -57 -750 -4 -1020 26 -134 62 -277 84 -333 5 -13
19 -51 30 -84 27 -82 101 -233 169 -348 143 -242 315 -440 599 -689 47 -41 86
-70 88 -64 2 5 -10 45 -26 87 -24 61 -28 82 -19 96 6 9 8 26 4 36 -7 17 -9 15
-21 -11 l-13 -30 -11 30 c-16 41 -25 62 -50 116 -11 25 -21 51 -21 56 0 6 -7
24 -15 39 -8 16 -15 37 -15 46 0 9 -4 20 -10 23 -5 3 -10 13 -10 22 0 8 -6 29
-14 46 -21 50 -38 118 -42 172 -4 46 -4 49 11 31 8 -11 15 -32 15 -47 0 -16
11 -40 24 -54 26 -28 50 -26 39 2 -5 14 -1 15 25 10 17 -4 34 -2 37 3 3 6 -3
10 -14 10 -12 0 -21 5 -21 10 0 6 15 10 34 10 l33 0 6 -67 c4 -38 7 -90 7
-116 0 -35 4 -47 13 -44 7 2 11 19 11 38 -3 59 18 193 32 210 8 8 14 30 14 47
0 17 5 43 10 58 6 14 15 58 20 97 6 39 14 75 19 81 5 6 14 43 20 83 6 39 15
83 21 98 5 14 10 44 10 66 0 22 4 47 9 57 37 67 65 648 41 832 -18 140 -20
143 -45 69 -29 -86 -59 -145 -135 -264 -116 -181 -236 -435 -277 -585 -19 -70
-23 -110 -23 -227 0 -93 -4 -144 -11 -149 -15 -9 -29 14 -29 47 0 15 -6 32
-14 38 -8 7 -18 27 -22 44 -4 18 -12 45 -19 62 -7 16 -21 50 -31 75 -23 60
-57 134 -149 325 -100 208 -135 282 -153 325 -8 19 -20 49 -27 65 -24 55 -44
110 -61 165 -10 30 -23 69 -31 87 -7 17 -13 40 -13 51 0 12 -5 33 -10 47 -6
15 -17 73 -25 129 -8 55 -19 117 -23 136 -8 33 -9 30 -21 -45z m689 -1726 c0
-11 -4 -17 -10 -14 -5 3 -10 13 -10 21 0 8 5 14 10 14 6 0 10 -9 10 -21z"/>
<path d="M8907 8014 c-11 -123 -47 -289 -91 -419 -37 -107 -146 -366 -163
-386 -7 -8 -13 -21 -13 -27 0 -11 -26 -66 -83 -177 -32 -61 -33 -64 -77 -158
-44 -95 -95 -226 -112 -292 -6 -22 -17 -47 -24 -56 -8 -8 -17 -30 -20 -47 -4
-18 -10 -32 -15 -32 -16 0 -21 50 -13 118 4 37 7 69 7 72 -1 3 -4 39 -7 80 -9
107 -33 187 -110 363 -50 114 -144 286 -228 416 -34 53 -80 147 -94 193 -27
87 -34 71 -52 -116 -9 -94 -9 -384 1 -466 4 -36 12 -103 17 -150 5 -47 12 -94
15 -105 4 -11 10 -45 15 -75 17 -113 41 -236 49 -255 11 -26 41 -167 48 -225
3 -24 12 -54 20 -66 8 -13 17 -57 20 -99 3 -41 10 -78 14 -81 5 -3 9 -21 9
-40 0 -19 4 -34 10 -34 5 0 10 15 9 33 -1 28 15 148 28 216 l4 24 20 -20 c12
-11 23 -39 26 -64 8 -63 20 -84 40 -68 8 8 13 23 10 37 -3 14 1 26 9 29 7 2
17 18 23 34 5 16 15 29 20 29 16 0 13 -92 -4 -114 -8 -11 -15 -31 -15 -45 0
-14 -7 -35 -15 -45 -8 -11 -15 -30 -15 -42 0 -12 -8 -37 -17 -56 -29 -59 -33
-68 -33 -78 0 -16 -50 -119 -61 -125 -5 -4 -9 -17 -9 -31 0 -13 -4 -24 -9 -24
-5 0 -13 -10 -16 -22 -6 -21 -26 -68 -46 -110 -12 -24 -11 -48 2 -48 5 0 29
18 52 39 23 22 56 50 72 62 17 13 93 87 170 164 143 143 290 328 371 465 25
41 49 82 54 90 17 26 97 201 124 273 24 60 45 125 76 237 22 75 49 229 55 305
8 98 12 115 31 115 12 0 14 40 14 251 0 143 -4 248 -9 245 -18 -12 -29 22 -35
109 -8 107 -25 224 -36 244 -5 9 -10 -8 -13 -45z m-647 -1768 c0 -8 -4 -18
-10 -21 -5 -3 -10 3 -10 14 0 12 5 21 10 21 6 0 10 -6 10 -14z"/>
<path d="M5286 7955 c-6 -17 2 -45 14 -45 12 0 20 28 14 45 -4 8 -10 15 -14
15 -4 0 -10 -7 -14 -15z"/>
<path d="M5470 7816 c0 -4 9 -17 20 -28 15 -16 23 -19 31 -11 13 13 2 36 -12
27 -5 -3 -16 0 -24 6 -8 7 -15 9 -15 6z"/>
<path d="M8230 7781 c0 -15 6 -21 21 -21 14 0 19 5 17 17 -5 26 -38 29 -38 4z"/>
<path d="M2186 7633 c-11 -11 -6 -23 9 -23 8 0 15 4 15 9 0 13 -16 22 -24 14z"/>
<path d="M4101 6613 c-17 -21 -54 -69 -81 -108 -27 -38 -53 -74 -57 -80 -5 -5
-25 -32 -46 -60 -49 -67 -47 -64 -89 -117 -21 -25 -38 -49 -38 -52 0 -3 -8
-14 -17 -25 -39 -41 -73 -84 -73 -92 0 -5 -4 -9 -10 -9 -5 0 -10 11 -10 24 0
14 5 28 10 31 6 3 10 11 10 17 0 6 -8 4 -18 -5 -26 -24 -51 -22 -45 3 3 11 0
26 -6 34 -10 11 -8 17 6 25 28 16 2 27 -79 34 -46 4 -77 12 -89 23 -25 22 -18
28 37 29 28 1 52 9 62 19 16 16 16 18 -7 37 -15 12 -38 19 -66 19 -28 0 -47 6
-59 18 -15 18 -15 20 2 35 10 10 28 17 39 17 28 0 53 10 53 21 0 17 -64 38
-132 44 -70 7 -88 20 -40 31 15 3 36 9 47 14 11 5 46 14 77 20 129 25 57 51
-120 43 -70 -3 -134 -9 -143 -14 -8 -4 -40 -11 -70 -15 -70 -8 -179 -60 -179
-85 0 -10 11 -24 24 -31 13 -7 47 -35 75 -61 55 -51 62 -74 37 -124 -34 -66
-105 -301 -136 -448 -10 -48 -54 -245 -75 -335 -19 -82 -65 -336 -75 -415 -28
-215 -33 -256 -27 -262 9 -8 47 32 91 97 85 126 302 409 314 410 6 0 12 -6 12
-14 0 -11 9 -13 38 -9 20 3 43 10 49 15 9 8 12 1 11 -27 -1 -20 -7 -39 -15
-42 -7 -3 -13 -10 -13 -15 0 -6 7 -8 15 -5 8 4 17 2 20 -3 10 -16 65 -12 82 5
16 17 34 16 40 -1 2 -6 -7 -15 -19 -21 -13 -6 -28 -24 -34 -41 l-12 -30 37 5
c20 3 49 12 65 19 16 8 35 14 43 14 7 0 16 7 19 15 4 8 15 15 25 15 11 0 37
11 59 25 22 14 44 25 49 25 5 0 16 6 23 13 7 7 56 37 108 66 103 58 139 82
273 179 65 48 93 63 110 58 12 -3 55 -26 95 -52 40 -25 74 -45 76 -43 2 2 10
18 19 34 17 34 22 239 7 290 -5 17 -19 84 -30 150 -12 66 -28 140 -35 165 -7
25 -21 72 -30 105 -22 81 -73 245 -101 325 -12 36 -25 75 -29 88 -9 30 -18 28
-54 -15z"/>
<path d="M4822 6596 c-11 -24 -23 -59 -27 -77 -4 -18 -11 -40 -16 -49 -15 -26
-109 -359 -135 -480 -46 -209 -60 -395 -36 -477 14 -48 29 -53 70 -24 51 36
133 81 147 81 8 0 43 -22 77 -50 67 -53 137 -99 313 -205 61 -36 117 -70 125
-76 8 -5 22 -12 30 -16 8 -4 43 -24 78 -45 34 -21 66 -38 71 -38 5 0 39 -16
76 -35 38 -19 84 -38 103 -41 18 -4 37 -14 40 -24 5 -13 12 -16 30 -9 12 5 22
13 22 18 0 14 -32 29 -47 24 -7 -2 -15 7 -19 21 -3 15 -19 35 -35 47 -16 11
-29 25 -29 30 0 12 37 12 45 -1 4 -6 11 -8 16 -4 5 3 17 0 25 -7 11 -9 18 -9
26 -1 15 15 -4 37 -30 37 -22 0 -28 36 -8 47 22 12 20 28 -4 28 -11 0 -20 -4
-20 -10 0 -5 -9 -10 -20 -10 -11 0 -20 5 -20 10 0 6 7 10 15 10 14 0 20 19 16
44 -1 5 4 29 10 52 15 49 18 48 73 -33 16 -24 33 -43 37 -43 5 0 9 -6 9 -12 0
-7 17 -31 37 -53 19 -22 43 -51 51 -65 20 -30 133 -183 142 -190 3 -3 17 -23
30 -45 13 -22 30 -46 38 -54 7 -8 20 -24 29 -37 18 -27 28 -30 36 -10 6 15
-31 308 -57 451 -41 229 -70 370 -102 505 -8 36 -19 83 -24 105 -20 91 -43
174 -66 243 -13 40 -24 77 -24 83 0 5 -9 30 -21 55 -31 70 -24 89 58 158 39
34 70 66 69 71 -3 18 -116 68 -185 83 -140 30 -328 40 -396 21 l-40 -11 45
-19 c25 -10 56 -18 69 -18 13 -1 42 -9 63 -18 l38 -17 -37 -18 c-20 -10 -56
-18 -80 -18 -31 0 -45 -5 -50 -16 -8 -22 25 -47 53 -41 27 5 77 -29 54 -37
-79 -26 -114 -36 -133 -36 -13 0 -28 -5 -35 -12 -16 -16 -15 -41 1 -35 19 7
61 -28 54 -45 -6 -17 -66 -32 -90 -23 -23 9 -35 -24 -38 -100 -1 -36 -9 -65
-18 -65 -16 0 -22 32 -9 49 12 14 11 14 -4 2 -16 -11 -22 -8 -58 29 -22 23
-40 44 -40 46 0 4 -148 200 -172 229 -8 8 -47 64 -123 172 -9 13 -24 27 -35
33 -17 9 -22 4 -38 -34z m886 -1170 c3 -12 -1 -17 -10 -14 -7 3 -15 13 -16 22
-3 12 1 17 10 14 7 -3 15 -13 16 -22z"/>
<path d="M8821 6128 c-1 -9 -7 -23 -13 -30 -7 -7 -28 -43 -47 -78 -88 -168
-257 -426 -321 -490 -3 -3 -23 -27 -45 -55 -115 -145 -395 -423 -664 -661 -25
-21 -81 -73 -125 -116 -97 -92 -135 -122 -143 -114 -7 7 23 72 52 111 27 36
115 218 115 237 0 8 5 19 11 25 13 13 33 103 59 263 20 120 20 130 5 243 -17
122 -40 222 -73 317 -31 90 -64 160 -71 155 -4 -2 -13 -50 -20 -107 -12 -97
-41 -246 -61 -313 -48 -154 -78 -238 -115 -320 -34 -75 -118 -243 -135 -270
-11 -16 -27 -43 -36 -60 -16 -29 -121 -190 -136 -210 -196 -252 -212 -270
-378 -435 -142 -142 -333 -309 -422 -369 -25 -17 -51 -37 -58 -46 -7 -8 -18
-15 -26 -15 -7 0 -17 -6 -21 -13 -4 -7 -30 -28 -58 -47 -188 -126 -226 -151
-280 -180 -33 -18 -67 -38 -75 -45 -8 -6 -28 -19 -45 -27 -86 -43 -185 -101
-185 -108 0 -5 -18 -11 -39 -15 -22 -3 -47 -12 -57 -19 -15 -11 -12 -14 24
-20 46 -7 54 -22 20 -35 -26 -9 -45 -5 -70 16 -21 18 -62 8 -54 -13 6 -14 -33
-36 -58 -33 -22 3 -76 -14 -87 -27 -6 -8 -16 -14 -21 -14 -17 0 -108 -44 -108
-52 0 -11 57 -10 78 1 9 5 51 19 92 31 41 13 89 29 105 38 17 8 49 14 72 13
23 -1 44 3 48 9 3 6 11 8 16 4 5 -3 25 8 45 25 20 18 40 28 47 24 6 -4 27 -10
47 -13 29 -6 32 -8 15 -14 -11 -4 -33 -14 -48 -22 -16 -7 -41 -14 -57 -14 -16
0 -30 -7 -34 -15 -3 -8 -16 -15 -28 -15 -13 -1 -34 -7 -48 -15 -14 -8 -34 -14
-45 -15 -11 0 -33 -7 -48 -15 -15 -8 -45 -17 -65 -21 -20 -4 -41 -10 -47 -14
-5 -5 -31 -11 -58 -15 -26 -4 -50 -11 -53 -16 -3 -5 -31 -9 -62 -9 -34 -1 -65
-7 -76 -15 -29 -22 -49 -19 -43 5 4 17 2 20 -14 15 -11 -4 -32 -18 -46 -31
-37 -35 -22 -58 40 -62 71 -5 388 39 497 69 19 5 82 20 140 34 154 37 407 115
500 153 14 6 59 23 100 38 68 24 185 72 265 109 69 31 353 174 385 194 19 11
42 24 50 28 28 13 193 114 269 165 468 314 865 703 1166 1141 63 92 161 252
215 352 43 80 140 273 140 280 0 3 13 33 29 67 15 35 38 88 50 118 12 30 26
64 31 75 5 11 26 72 46 135 20 63 41 125 46 137 6 11 8 27 5 35 -4 9 -6 8 -6
-4z m-2891 -2618 c0 -5 -7 -10 -15 -10 -8 0 -15 5 -15 10 0 6 7 10 15 10 8 0
15 -4 15 -10z m-70 -49 c0 -11 -25 -21 -51 -21 -21 0 -26 16 -6 23 21 9 57 7
57 -2z m115 -31 c-3 -5 -13 -10 -21 -10 -8 0 -12 5 -9 10 3 6 13 10 21 10 8 0
12 -4 9 -10z m-231 -29 c8 -13 -30 -43 -59 -46 -13 -2 -32 -10 -41 -19 -17
-17 -94 -22 -94 -6 0 5 21 15 46 21 25 7 48 18 51 26 10 26 85 44 97 24z m181
-1 c-3 -5 -15 -10 -26 -10 -10 0 -19 5 -19 10 0 6 12 10 26 10 14 0 23 -4 19
-10z m-70 -30 c-3 -5 -15 -10 -26 -10 -10 0 -19 5 -19 10 0 6 12 10 26 10 14
0 23 -4 19 -10z m-80 -30 c-5 -8 -11 -8 -17 -2 -6 6 -7 16 -3 22 5 8 11 8 17
2 6 -6 7 -16 3 -22z m-65 -30 c0 -5 -11 -10 -25 -10 -14 0 -25 5 -25 10 0 6
11 10 25 10 14 0 25 -4 25 -10z"/>
<path d="M170 6086 c0 -25 89 -272 146 -406 9 -19 19 -44 24 -55 22 -52 153
-317 186 -375 72 -130 213 -348 287 -445 193 -251 376 -451 560 -612 62 -54
117 -102 123 -108 111 -100 359 -276 560 -398 153 -92 370 -206 557 -291 222
-102 638 -244 867 -296 52 -12 105 -26 118 -31 13 -5 36 -9 52 -9 16 0 39 -4
52 -9 42 -16 259 -43 351 -45 76 -1 91 2 101 17 9 15 7 21 -9 32 -11 8 -25 18
-31 23 -6 5 -21 13 -35 17 -21 7 -22 6 -11 -8 10 -12 10 -17 1 -23 -7 -4 -17
0 -23 9 -8 10 -34 17 -81 20 -70 4 -145 20 -177 37 -9 6 -36 13 -60 16 -24 4
-47 10 -53 14 -5 4 -44 18 -85 30 -41 13 -82 30 -91 37 -8 7 -29 13 -45 13
-16 0 -38 7 -48 15 -11 8 -28 15 -38 15 -10 0 -18 7 -18 15 0 20 83 9 127 -18
42 -24 97 -37 114 -26 7 4 18 5 24 1 17 -11 77 -32 150 -53 39 -11 86 -24 105
-30 19 -6 49 -12 65 -14 17 -2 22 -2 13 1 -10 3 -18 12 -18 20 0 8 -10 14 -26
14 -15 0 -62 18 -106 40 -44 22 -90 40 -102 40 -23 0 -61 20 -38 20 6 0 12 4
12 9 0 16 -43 18 -72 4 -33 -16 -132 -7 -149 13 -6 8 -30 14 -54 14 -29 0 -45
5 -49 15 -3 8 -15 15 -26 15 -12 0 -30 5 -41 10 -15 9 -21 7 -25 -5 -3 -8 -16
-15 -28 -15 -20 1 -20 2 -3 14 9 7 17 21 17 30 0 23 61 21 92 -4 14 -10 45
-22 68 -26 24 -4 50 -15 59 -25 16 -20 38 -23 90 -13 41 9 25 30 -30 39 -21 4
-42 12 -46 19 -5 7 -51 35 -103 62 -52 27 -97 52 -100 56 -5 7 -59 37 -131 75
-15 7 -32 20 -39 28 -7 8 -16 15 -21 15 -5 0 -43 24 -85 53 -41 28 -90 61
-108 72 -25 15 -170 124 -251 186 -143 112 -330 289 -470 445 -90 100 -99 110
-166 194 -39 49 -181 256 -192 280 -4 8 -18 33 -32 55 -96 153 -200 396 -275
640 -20 65 -48 224 -55 308 -4 48 -11 90 -16 93 -8 5 -28 -34 -62 -121 -93
-239 -111 -483 -54 -745 25 -118 109 -306 191 -427 25 -38 28 -63 7 -63 -4 0
-41 33 -82 73 -41 39 -120 113 -174 162 -55 50 -131 119 -170 154 -423 385
-666 684 -862 1059 -36 70 -53 88 -53 58z m2930 -2576 c0 -13 -11 -13 -30 0
-12 8 -11 10 8 10 12 0 22 -4 22 -10z m100 -65 c0 -8 -10 -10 -25 -7 -28 5
-39 17 -30 32 8 12 55 -9 55 -25z m-90 -45 c0 -5 -6 -10 -14 -10 -8 0 -18 5
-21 10 -3 6 3 10 14 10 12 0 21 -4 21 -10z m75 -30 c3 -6 -5 -10 -19 -10 -14
0 -28 5 -31 10 -3 6 5 10 19 10 14 0 28 -4 31 -10z m130 -60 c-3 -5 -12 -10
-20 -10 -8 0 -17 5 -20 10 -4 6 5 10 20 10 15 0 24 -4 20 -10z"/>
<path d="M953 5775 c0 -27 2 -38 4 -22 2 15 2 37 0 50 -2 12 -4 0 -4 -28z"/>
<path d="M3330 5125 c-10 -13 -9 -15 9 -15 12 0 21 6 21 15 0 8 -4 15 -9 15
-5 0 -14 -7 -21 -15z"/>
<path d="M1720 2149 c-58 -4 -127 -12 -155 -18 -173 -38 -213 -49 -305 -83
-246 -92 -451 -242 -564 -412 -121 -182 -160 -316 -161 -541 0 -191 23 -298
98 -450 63 -127 204 -284 332 -370 118 -78 309 -163 439 -196 183 -46 224 -51
441 -56 246 -5 351 5 555 56 125 32 314 116 430 193 125 82 263 230 327 348
48 88 91 227 104 330 12 101 6 286 -12 355 -5 22 -14 57 -20 78 -36 145 -178
349 -320 462 -209 166 -517 278 -845 305 -133 11 -191 11 -344 -1z m280 -359
c98 -13 147 -27 230 -68 143 -70 256 -205 317 -377 27 -76 28 -89 28 -250 0
-137 -4 -182 -19 -230 -78 -255 -254 -415 -514 -470 -231 -48 -474 24 -633
187 -127 130 -189 298 -189 510 0 190 39 317 138 451 139 188 381 282 642 247z"/>
<path d="M4889 2149 c-360 -25 -691 -137 -925 -312 -89 -66 -122 -97 -189
-178 -116 -138 -181 -313 -192 -511 -14 -285 62 -505 245 -699 113 -120 224
-194 437 -290 37 -16 199 -67 265 -83 189 -45 257 -51 550 -50 322 0 371 6
673 85 65 17 63 27 -28 234 -7 17 -19 47 -26 68 -20 58 -29 62 -107 44 -247
-57 -619 -42 -857 35 -184 60 -336 177 -404 312 -50 98 -56 126 -56 281 0 125
3 158 20 200 120 308 451 475 940 475 88 0 176 -4 195 -10 19 -5 68 -13 110
-16 l75 -6 55 88 c30 49 73 118 97 153 23 36 40 68 37 73 -7 11 -68 36 -119
49 -243 61 -496 80 -796 58z m326 -49 c13 -5 -28 -9 -110 -9 -87 -1 -125 2
-115 9 18 12 197 12 225 0z"/>
<path d="M6885 2149 c-71 -4 -156 -12 -190 -18 -33 -5 -82 -13 -110 -16 -27
-4 -66 -10 -85 -15 -19 -4 -80 -18 -135 -31 -55 -12 -112 -28 -128 -36 l-27
-14 2 -982 3 -982 335 0 335 0 5 855 5 854 35 8 c58 14 270 13 350 -1 200 -35
330 -104 413 -219 58 -81 72 -132 71 -262 0 -109 -2 -118 -33 -182 -49 -99
-117 -165 -221 -215 -101 -49 -165 -64 -288 -70 l-114 -6 -59 -125 c-32 -68
-59 -130 -59 -137 0 -7 17 -15 38 -19 59 -9 411 -7 482 4 222 35 351 72 502
146 235 115 388 296 433 513 13 62 7 239 -10 299 -32 113 -85 202 -170 287
-91 92 -98 97 -180 147 -150 91 -318 149 -565 197 -69 13 -330 31 -430 29 -41
0 -133 -4 -205 -9z"/>
</g>
</svg>
