<?xml version="1.0" standalone="no"?>
<!DOCTYPE svg PUBLIC "-//W3C//DTD SVG 20010904//EN"
 "http://www.w3.org/TR/2001/REC-SVG-20010904/DTD/svg10.dtd">
<svg fill="none" height="9000" viewBox="0 0 1100 500" width="9000" xmlns="http://www.w3.org/2000/svg" xmlns:xlink="http://www.w3.org/1999/xlink">
<metadata>
Created by potrace 1.10, written by Peter Selinger 2001-2011
</metadata>
<g 
transform="translate(-250.000000,600.000000) scale(0.150000,-0.100000)"
fill="#8f8f8f" stroke="none">
<path d="M4325 4970 c-124 -9 -133 -10 -250 -35 -113 -23 -179 -40 -190 -46
-5 -4 -25 -10 -43 -14 -18 -4 -45 -13 -60 -21 -15 -8 -33 -14 -40 -14 -7 0
-20 -4 -30 -10 -9 -5 -39 -19 -67 -30 -84 -36 -236 -114 -247 -127 -6 -7 -14
-13 -18 -13 -12 0 -136 -86 -222 -153 -98 -77 -299 -282 -375 -383 -34 -45
-83 -117 -109 -160 -26 -43 -50 -81 -53 -84 -6 -5 -67 -130 -119 -241 -12 -25
-22 -51 -22 -58 0 -6 -4 -19 -9 -29 -14 -25 -51 -139 -51 -157 0 -8 -4 -23 -9
-33 -11 -22 -27 -98 -48 -242 -31 -205 -18 -579 24 -696 15 -42 75 -91 356
-290 176 -124 292 -210 304 -225 6 -8 13 -43 16 -79 5 -83 25 -247 37 -325 10
-59 28 -216 37 -325 3 -30 8 -58 12 -63 4 -4 256 -9 559 -10 l551 -2 28 -26
c47 -43 78 -58 142 -68 108 -17 195 5 264 68 l28 26 550 2 c303 2 555 5 560 8
5 4 9 25 9 47 0 23 4 67 10 97 5 31 15 101 21 156 6 55 18 156 26 225 8 69 17
154 20 190 3 36 10 71 16 79 12 15 122 96 312 231 250 178 330 241 344 273 44
100 60 504 28 712 -22 143 -40 232 -49 241 -5 4 -8 16 -8 26 0 20 -36 133 -51
160 -5 10 -9 23 -9 29 0 7 -10 33 -22 58 -52 111 -113 236 -119 241 -3 3 -26
40 -52 82 -103 172 -303 398 -472 534 -151 122 -338 236 -500 304 -27 11 -58
25 -67 30 -10 6 -23 10 -30 10 -7 0 -25 6 -40 14 -15 8 -42 17 -60 21 -18 4
-37 10 -43 14 -10 6 -72 21 -190 47 -153 32 -393 46 -580 34z m48 -390 l27 0
0 -142 c0 -79 5 -190 10 -248 6 -58 15 -254 20 -435 6 -182 15 -377 20 -435 5
-58 9 -208 10 -335 1 -215 10 -388 26 -472 17 -89 26 22 34 422 5 234 12 430
15 435 4 6 10 157 15 338 6 180 14 381 20 447 5 66 10 186 10 267 0 104 4 149
12 154 7 4 68 7 136 6 121 -1 192 -13 267 -47 17 -7 41 -16 55 -19 14 -3 41
-19 60 -35 31 -26 34 -32 23 -50 -7 -11 -13 -35 -13 -52 0 -17 -7 -58 -15 -92
-8 -34 -21 -96 -29 -137 -8 -41 -20 -97 -26 -125 -6 -27 -15 -75 -20 -105 -4
-30 -13 -68 -19 -83 -6 -16 -11 -43 -11 -61 0 -19 -7 -53 -15 -76 -8 -23 -15
-56 -15 -73 0 -17 -6 -53 -14 -81 -16 -55 -32 -135 -46 -233 -5 -35 -14 -72
-20 -82 -5 -11 -10 -35 -10 -54 0 -18 -7 -56 -15 -83 -8 -27 -15 -64 -15 -81
0 -18 -6 -50 -14 -70 -8 -21 -18 -69 -24 -108 -5 -38 -19 -107 -31 -153 -11
-46 -21 -102 -21 -124 0 -35 2 -39 15 -28 8 7 15 22 15 34 1 11 7 32 15 46 8
14 14 39 15 55 0 17 7 43 15 59 8 15 15 36 15 46 0 10 7 42 16 71 8 30 22 79
31 109 8 30 21 73 29 95 8 23 14 50 14 62 0 12 6 37 14 55 25 61 38 103 47
152 4 27 13 54 19 60 5 5 10 20 10 33 0 12 6 37 14 55 13 31 25 74 46 158 4
19 13 49 18 65 6 17 18 57 27 90 9 33 21 74 27 90 5 17 13 46 17 65 7 34 22
84 43 145 6 17 13 48 17 70 8 44 26 103 47 153 8 18 14 42 14 52 0 24 34 27
82 6 18 -8 40 -17 48 -20 8 -4 29 -15 45 -26 17 -11 37 -23 45 -27 49 -22 250
-204 250 -226 0 -5 -11 -30 -23 -56 -13 -25 -38 -75 -54 -111 -57 -122 -91
-195 -97 -210 -3 -8 -10 -22 -15 -30 -9 -14 -62 -128 -75 -160 -3 -8 -10 -22
-15 -30 -4 -8 -22 -44 -38 -80 -17 -36 -45 -94 -62 -130 -17 -36 -31 -70 -31
-76 0 -7 -7 -17 -15 -24 -8 -7 -15 -23 -15 -35 0 -12 -7 -28 -15 -35 -8 -7
-15 -17 -15 -23 0 -15 -40 -96 -51 -103 -5 -3 -9 -15 -9 -26 0 -12 -6 -29 -13
-37 -7 -9 -21 -36 -31 -61 -10 -25 -22 -52 -27 -60 -4 -8 -18 -35 -29 -60 -12
-25 -35 -72 -51 -105 -16 -33 -29 -65 -29 -71 0 -6 -7 -17 -15 -24 -8 -7 -15
-20 -15 -30 0 -10 -7 -23 -15 -30 -8 -7 -15 -23 -15 -37 0 -13 -7 -26 -15 -29
-18 -7 -21 -58 -2 -52 6 3 14 13 16 24 2 10 9 23 17 27 8 4 14 14 14 22 0 7 6
20 13 27 6 7 23 35 37 61 47 90 53 102 59 107 3 3 15 23 26 45 10 22 32 59 47
83 15 24 28 47 28 51 0 4 12 26 28 47 15 21 33 50 39 64 7 14 26 48 42 75 17
28 35 59 41 70 6 11 19 34 30 50 11 17 25 41 30 55 6 13 14 27 18 30 4 3 13
16 19 30 7 14 26 48 42 75 17 28 35 59 41 70 6 11 26 47 45 80 19 33 40 69 45
80 6 11 19 34 30 50 11 17 25 41 31 55 5 14 21 39 35 57 13 17 24 36 24 42 0
5 12 29 28 53 47 75 52 82 63 108 11 25 11 25 75 -43 36 -38 69 -78 75 -90 5
-12 18 -35 29 -52 33 -53 81 -148 100 -204 19 -54 19 -55 0 -86 -11 -17 -30
-43 -42 -56 -13 -14 -47 -56 -77 -93 -58 -75 -88 -110 -112 -135 -8 -9 -30
-36 -49 -61 -19 -25 -44 -56 -56 -70 -33 -37 -95 -113 -124 -151 -14 -18 -29
-37 -35 -43 -5 -6 -22 -27 -36 -46 -15 -19 -38 -47 -52 -62 -13 -15 -46 -55
-73 -90 -26 -35 -58 -74 -70 -88 -51 -58 -184 -221 -220 -269 -21 -28 -42 -51
-46 -51 -4 0 -8 -7 -8 -15 0 -8 3 -15 6 -15 3 0 79 75 167 167 89 92 295 303
458 468 163 165 322 327 353 359 31 33 57 58 59 55 21 -24 62 -137 70 -193 17
-108 13 -285 -8 -392 -4 -19 -103 -104 -122 -104 -4 0 -22 -13 -40 -28 -18
-15 -89 -67 -157 -117 -69 -49 -174 -126 -233 -170 -123 -91 -111 -68 -133
-280 -6 -54 -15 -115 -20 -135 -5 -19 -10 -60 -11 -90 0 -30 -8 -91 -17 -135
l-17 -80 -396 -1 -397 -1 -44 -36 c-25 -21 -49 -37 -53 -37 -5 0 -16 -6 -24
-13 -9 -7 -35 -19 -58 -27 -36 -11 -50 -11 -85 0 -24 8 -50 20 -59 27 -8 7
-21 13 -27 13 -6 0 -15 6 -19 13 -4 6 -23 23 -42 36 l-33 23 -396 2 -397 1 -6
35 c-4 19 -12 59 -18 89 -6 29 -11 77 -11 105 0 28 -5 71 -11 96 -6 25 -15 86
-20 135 -17 164 -18 167 -60 208 -22 20 -42 37 -45 37 -3 0 -41 27 -84 60 -43
33 -82 60 -87 60 -4 0 -21 14 -37 30 -16 17 -33 30 -38 30 -5 0 -53 33 -106
73 -53 39 -122 89 -154 110 -62 42 -73 62 -84 157 -23 187 3 385 62 476 l16
24 85 -87 c47 -49 219 -223 382 -388 163 -165 360 -367 438 -448 77 -81 147
-147 154 -147 8 0 -1 13 -19 29 -17 17 -32 33 -32 37 0 8 -81 114 -110 145
-18 18 -41 46 -95 114 -22 28 -45 55 -51 60 -6 6 -33 39 -60 75 -26 36 -53 70
-60 75 -6 6 -33 39 -60 75 -27 36 -56 72 -64 81 -18 18 -40 46 -95 114 -22 28
-45 55 -51 60 -6 6 -26 30 -44 55 -19 25 -59 74 -90 110 -31 36 -71 85 -90
110 -19 25 -44 56 -57 69 -13 13 -32 39 -44 57 -19 31 -19 35 -5 63 9 17 16
38 16 48 1 10 12 36 25 58 14 22 28 47 31 55 15 37 19 45 75 130 20 30 57 74
81 98 l45 44 22 -39 c13 -21 27 -45 32 -53 5 -8 14 -24 19 -35 6 -11 24 -42
41 -70 16 -27 37 -63 45 -80 8 -16 23 -43 34 -60 11 -16 24 -39 29 -50 5 -11
21 -37 35 -58 14 -21 26 -44 26 -52 0 -8 4 -15 9 -15 5 0 14 -12 20 -27 6 -16
20 -41 31 -58 11 -16 24 -39 29 -50 5 -11 20 -36 33 -55 13 -19 34 -55 47 -80
12 -25 31 -58 42 -75 10 -16 23 -39 29 -50 6 -11 19 -33 30 -50 11 -16 24 -39
29 -50 5 -11 21 -37 35 -58 14 -21 26 -44 26 -52 0 -8 5 -17 11 -20 5 -4 15
-17 20 -28 5 -12 23 -44 40 -72 16 -27 37 -63 45 -80 8 -16 23 -43 34 -60 11
-16 24 -40 29 -52 5 -11 15 -24 20 -28 6 -3 11 -14 11 -25 0 -10 6 -20 14 -23
8 -3 16 -16 18 -28 2 -12 9 -24 16 -27 18 -6 15 47 -3 54 -8 4 -15 16 -15 29
0 12 -7 28 -15 35 -8 7 -15 18 -15 24 0 6 -13 38 -29 71 -16 33 -32 67 -35 75
-3 8 -10 22 -15 30 -4 8 -23 47 -41 85 -19 39 -37 77 -41 85 -23 42 -49 104
-49 115 0 7 -7 18 -15 25 -8 7 -15 20 -15 30 0 10 -7 23 -15 30 -8 7 -15 21
-15 32 0 11 -7 26 -15 34 -8 9 -15 24 -15 33 0 10 -7 24 -15 31 -8 7 -15 18
-15 25 0 8 -6 26 -14 42 -19 37 -73 154 -80 173 -3 8 -10 22 -15 30 -5 8 -12
22 -15 30 -3 8 -10 22 -15 30 -5 8 -16 31 -24 50 -45 102 -60 130 -68 136 -5
3 -9 16 -9 29 0 13 -4 26 -9 30 -10 5 -20 25 -81 160 -17 39 -36 77 -40 86 -5
9 -16 33 -24 53 l-15 37 69 73 c61 64 207 176 230 176 4 0 13 7 20 15 7 8 22
15 34 15 11 0 30 7 40 15 11 8 31 15 45 15 22 0 28 -8 44 -53 9 -30 17 -63 17
-73 0 -11 4 -24 10 -30 5 -5 14 -30 19 -54 16 -72 33 -133 47 -167 8 -17 14
-39 14 -50 0 -17 16 -72 46 -156 8 -20 14 -48 14 -61 0 -13 7 -37 15 -52 8
-16 15 -40 15 -54 1 -14 7 -36 15 -50 8 -14 15 -38 15 -55 0 -16 7 -39 15 -49
8 -11 15 -34 15 -51 0 -17 4 -35 10 -41 5 -5 14 -30 19 -54 5 -25 14 -58 19
-75 22 -64 36 -111 43 -145 4 -19 12 -48 17 -65 6 -16 18 -57 27 -90 9 -33 23
-80 31 -105 8 -25 14 -55 14 -67 0 -12 4 -24 9 -28 6 -3 13 -26 17 -52 4 -25
13 -58 20 -72 8 -14 14 -40 14 -57 0 -17 7 -37 14 -44 8 -6 16 -33 18 -58 2
-26 8 -47 13 -47 17 0 17 62 1 94 -9 16 -16 51 -16 76 0 26 -4 54 -10 64 -5
10 -14 43 -19 72 -18 100 -31 164 -43 209 -6 25 -14 65 -18 90 -12 68 -30 160
-42 210 -6 25 -14 68 -18 95 -10 64 -28 159 -41 210 -6 22 -14 65 -18 95 -5
30 -13 75 -19 100 -6 25 -18 81 -27 125 -9 44 -21 100 -27 125 -6 25 -14 68
-18 95 -12 77 -30 165 -45 215 -8 25 -15 76 -17 115 -3 64 -1 70 20 81 13 6
29 17 35 23 6 6 21 11 33 11 13 0 25 4 29 9 17 28 244 65 335 55 19 -2 47 -4
63 -4z"/>
<path d="M4736 2494 c-9 -24 -7 -82 3 -88 12 -8 21 19 21 65 0 40 -13 52 -24
23z"/>
<path d="M4012 2306 c1 -10 8 -17 13 -17 15 1 12 24 -3 29 -9 3 -13 -2 -10
-12z"/>
<path d="M4945 2310 c-8 -13 4 -32 16 -25 12 8 12 35 0 35 -6 0 -13 -4 -16
-10z"/>
</g>
</svg>
